<?xml version="1.0" encoding="UTF-8" standalone="no"?>
<svg
   xmlns:dc="http://purl.org/dc/elements/1.1/"
   xmlns:cc="http://creativecommons.org/ns#"
   xmlns:rdf="http://www.w3.org/1999/02/22-rdf-syntax-ns#"
   xmlns:svg="http://www.w3.org/2000/svg"
   xmlns="http://www.w3.org/2000/svg"
   xmlns:sodipodi="http://sodipodi.sourceforge.net/DTD/sodipodi-0.dtd"
   xmlns:inkscape="http://www.inkscape.org/namespaces/inkscape"
   width="2500"
   height="1400"
   viewBox="0 0 2499.9958 1400"
   version="1.1"
   xml:space="preserve"
   style="clip-rule:evenodd;fill-rule:evenodd;stroke-linejoin:round;stroke-miterlimit:1.41421"
   id="svg43"
   sodipodi:docname="ferris-ferride.devel.svg"
   inkscape:version="1.0.2 (e86c870879, 2021-01-15, custom)"><metadata
   id="metadata49"><rdf:RDF><cc:Work
       rdf:about=""><dc:format>image/svg+xml</dc:format><dc:type
         rdf:resource="http://purl.org/dc/dcmitype/StillImage" /><dc:title></dc:title></cc:Work></rdf:RDF></metadata><defs
   id="defs47" /><sodipodi:namedview
   pagecolor="#ffffff"
   bordercolor="#666666"
   borderopacity="1"
   objecttolerance="10"
   gridtolerance="10"
   guidetolerance="10"
   inkscape:pageopacity="0"
   inkscape:pageshadow="2"
   inkscape:window-width="1600"
   inkscape:window-height="831"
   id="namedview45"
   showgrid="false"
   inkscape:zoom="0.25448857"
   inkscape:cx="1648.8228"
   inkscape:cy="712.91446"
   inkscape:window-x="1366"
   inkscape:window-y="32"
   inkscape:window-maximized="1"
   inkscape:current-layer="layer2"
   units="px"
   width="1200px" />
    <g
   inkscape:groupmode="layer"
   id="layer1"
   inkscape:label="bottom"><rect
     style="clip-rule:evenodd;fill:#ffffff;fill-opacity:1;fill-rule:evenodd;stroke:#ffffff;stroke-width:11.5498;stroke-linecap:square;stroke-linejoin:round;stroke-miterlimit:1.41421;stroke-dasharray:none;stroke-opacity:1"
     id="rect984"
     width="133.06075"
     height="131.54585"
     x="897.82135"
     y="813.84265" /><rect
     style="clip-rule:evenodd;fill:#ffffff;fill-opacity:1;fill-rule:evenodd;stroke:#ffffff;stroke-width:11.5498;stroke-linecap:square;stroke-linejoin:round;stroke-miterlimit:1.41421;stroke-dasharray:none;stroke-opacity:1"
     id="rect984-2"
     width="133.06075"
     height="131.54585"
     x="1212.0499"
     y="801.73242" /></g><g
   inkscape:groupmode="layer"
   id="layer3"
   inkscape:label="Body"
   style="display:inline"><g
     id="g968"
     transform="matrix(1.808374,0,0,1.808374,12.273595,-13.335146)"><path
       style="fill:#fad014;stroke-width:0.497588"
       d="m 410.11254,337.41282 c -12.61139,-0.94256 -26.30461,-3.94225 -36.30488,-7.95311 -16.15145,-6.47793 -28.54123,-17.22676 -32.13388,-27.87794 -1.98405,-5.88215 -1.24127,-16.81875 1.76848,-26.03889 l 1.23108,-3.7713 -1.80678,-16.00028 c -1.78767,-15.83105 -1.79698,-16.01848 -0.87978,-17.72161 0.84682,-1.57245 4.78915,-5.07866 5.71038,-5.07866 0.21253,0 0.53717,1.51143 0.72141,3.35872 0.55639,5.57861 4.67279,42.53098 4.961,44.53416 0.2601,1.80786 0.2211,1.86595 -1.25281,1.86595 -1.73525,0 -3.96396,1.90427 -3.96396,3.38692 0,1.36134 1.9955,4.12187 3.91431,5.41496 9.18597,6.19042 42.70722,8.73789 93.61299,7.1142 104.72293,-3.34026 247.85873,-21.31144 327.09967,-41.06847 35.12625,-8.75797 51.56503,-16.42441 51.56503,-24.04802 0,-2.06454 -2.14954,-3.72907 -4.35375,-3.37138 -0.88954,0.14435 -1.61731,0.1791 -1.61731,0.0772 0,-0.9841 -5.09645,-45.36958 -5.41362,-47.14749 -0.49534,-2.77709 -0.33641,-2.8362 3.17447,-1.18056 4.83322,2.27923 4.6531,1.75788 6.67972,19.33476 l 1.79376,15.55741 1.65672,2.23915 c 2.33538,3.1565 6.27787,11.50638 7.51816,15.92282 1.68683,6.00671 1.86357,11.09324 0.53715,15.46024 -5.05595,16.64553 -21.67306,31.67836 -45.80166,41.43487 -11.20221,4.52965 -22.07914,7.49705 -40.30465,10.99574 -25.01869,4.80275 -44.77036,7.08466 -95.03937,10.97987 -52.60886,4.07653 -68.37211,5.84647 -119.66998,13.43695 -28.13718,4.16343 -39.94449,5.77817 -52.49557,7.17921 -26.88873,3.00149 -54.79889,4.1684 -70.90633,2.96456 z m -13.43489,-45.22141 c -9.68157,-0.39905 -13.61739,-0.76688 -24.80508,-2.31819 -5.74236,-0.79624 -12.09223,-2.29302 -12.82145,-3.02224 -0.24233,-0.24232 -1.80475,-12.74434 -3.47204,-27.78226 -1.6673,-15.03791 -3.11905,-27.63121 -3.22613,-27.9851 -0.14721,-0.48655 -0.43914,-0.51262 -1.19724,-0.10689 -0.98804,0.52878 -1.00256,0.4047 -1.00256,-8.56499 0,-53.00026 29.84591,-104.87486 81.47059,-141.602455 6.38451,-4.54217 19.07932,-12.668765 19.35681,-12.391285 0.089,0.089 -0.48731,2.73242 -1.28077,5.87418 -1.63264,6.464565 -3.13694,15.936645 -4.101,25.82278 -0.87856,9.00933 -0.88147,56.74612 -0.004,70.40874 2.01429,31.37394 3.95623,54.32813 6.60912,78.12136 1.41626,12.7022 4.61542,38.00227 5.2283,41.34726 l 0.28219,1.54019 -5.88759,0.31828 c -10.24333,0.55377 -44.79933,0.7672 -55.14867,0.34062 z m 67.1958,-2.12212 c -1.43765,-6.53282 -6.26374,-47.83745 -8.44467,-72.2747 -3.28068,-36.75964 -4.45335,-59.13848 -4.4717,-85.33639 -0.0236,-33.749815 2.30962,-53.211515 8.02372,-66.92563 1.2149,-2.91581 5.54996,-9.93654 5.91195,-9.57454 0.10019,0.10018 -0.48107,2.80826 -1.29168,6.01793 -1.58809,6.28813 -3.05723,15.626045 -4.08241,25.948085 -0.86791,8.73846 -0.868,58.628775 -1.3e-4,71.901505 3.03072,46.3504 6.58933,81.93407 11.8174,118.16571 0.94684,6.56184 1.72153,12.21569 1.72153,12.56411 0,0.4659 -1.1822,0.63349 -4.46882,0.63349 -4.2296,0 -4.482,-0.0599 -4.71519,-1.11957 z m 15.65266,0.42042 c 0,-0.14401 -0.55343,-3.90814 -1.22983,-8.36474 -5.33883,-35.1757 -9.84211,-79.49041 -12.52926,-123.29459 -1.20111,-19.5797 -1.2146,-58.06998 -0.0247,-70.530825 1.93383,-20.251795 5.1259,-32.925735 10.27336,-40.789665 2.44614,-3.73706 4.08022,-5.2145 7.80688,-7.05854 7.48886,-3.70566 28.89187,-8.24723 58.6485,-12.44482 28.61082,-4.03596 60.95476,-6.37109 81.25208,-5.86616 15.6407,0.38909 18.36514,1.2022 24.06915,7.18339 15.97263,16.7488 29.13319,66.049925 40.94952,153.40251 3.90438,28.86298 9.20638,82.13184 8.27793,83.1672 -0.31651,0.35293 -18.5995,3.37902 -35.37629,5.85526 -54.29768,8.01431 -116.69212,14.69484 -167.43846,17.92755 -4.37878,0.27894 -9.47284,0.63499 -11.32013,0.79121 -1.8473,0.15623 -3.35872,0.16622 -3.35872,0.0222 z m 223.91473,-26.6324 c 0,-5.75618 -4.2302,-48.26119 -7.01077,-70.44455 -9.80747,-78.24293 -21.61708,-130.47319 -35.15014,-155.45765 -2.26785,-4.18685 -2.2686,-4.1898 -0.76967,-3.12249 2.75734,1.96342 7.06471,7.06281 9.61983,11.38869 12.17056,20.60521 22.30728,60.32883 32.03702,125.54636 4.45247,29.84414 10.64785,84.8798 10.14244,90.09852 -0.15718,1.62295 -0.2361,1.67585 -3.39524,2.27535 -4.68345,0.88878 -5.47347,0.84776 -5.47347,-0.28423 z m 15.20366,-4.65843 c -0.16306,-1.6995 -0.74021,-8.01612 -1.28253,-14.03694 -3.60941,-40.07076 -10.90485,-91.68682 -17.91288,-126.73588 -6.33724,-31.694115 -12.969,-53.76598 -20.9209,-69.62899 -2.05878,-4.10703 -2.76386,-5.93893 -2.20293,-5.72369 0.4537,0.17411 3.21368,1.13479 6.13323,2.13485 27.56564,9.4422 52.99942,23.75901 73.22912,41.220995 5.93822,5.12576 16.28313,15.603925 20.8806,21.149555 17.22576,20.77821 28.99432,45.53611 33.54198,70.56334 0.27098,1.49131 0.19391,1.63271 -0.81386,1.49276 -0.99373,-0.13801 -1.09624,0.0322 -0.95562,1.58697 0.0867,0.95786 1.48799,13.59469 3.11406,28.08184 2.33817,20.83172 2.8255,26.43318 2.33035,26.78447 -1.95169,1.38468 -11.55419,5.57605 -17.79286,7.76636 -15.07225,5.29167 -45.70025,12.65454 -75.47155,18.14313 l -1.5797,0.29122 z"
       id="path980"
       sodipodi:nodetypes="sssscsssssssssssssssscssssssssssssssssssssscsscssssssssssssssssssssssssssssssssssssssssssssssssssssssscs" /><path
       style="fill:#d9b224;stroke-width:0.497588"
       d="m 962.72361,762.11475 c 0.0239,-0.5797 0.14181,-0.6976 0.30064,-0.3007 0.14376,0.3592 0.12609,0.7884 -0.0393,0.9538 -0.16535,0.1653 -0.28298,-0.1286 -0.26139,-0.6531 z m -674.56748,-4.8101 -0.9479,-1.1195 1.11957,0.9479 c 1.05212,0.8908 1.3461,1.2912 0.9479,1.2912 -0.0944,0 -0.59823,-0.5038 -1.11957,-1.1196 z m -28.56405,-30.4772 c -1.20866,-1.2316 -2.0856,-2.2392 -1.94877,-2.2392 0.13684,0 1.2377,1.0076 2.44636,2.2392 1.20865,1.2315 2.0856,2.2391 1.94876,2.2391 -0.13684,0 -1.23769,-1.0076 -2.44635,-2.2391 z m -19.67344,-19.2816 -2.46924,-2.6123 2.61234,2.4692 c 2.42743,2.2945 2.84053,2.7555 2.46924,2.7555 -0.0787,0 -1.25427,-1.1756 -2.61234,-2.6124 z m -27.85558,-27.3673 -4.96655,-5.1003 5.10028,4.9665 c 2.80516,2.7316 5.10028,5.0267 5.10028,5.1003 0,0.3599 -0.62106,-0.2294 -5.23401,-4.9665 z m 407.90734,-19.1553 c 2.94199,-0.088 7.75616,-0.088 10.69815,0 2.94199,0.088 0.53491,0.1599 -5.34907,0.1599 -5.88398,0 -8.29107,-0.072 -5.34908,-0.1599 z m -31.34124,-0.4834 c 0.75638,-0.1143 1.87595,-0.1113 2.48794,0.01 0.61203,0.1181 -0.007,0.2117 -1.37519,0.208 -1.36836,0 -1.86909,-0.1004 -1.11275,-0.2148 z m 68.66718,0 c 0.75639,-0.1143 1.87596,-0.1113 2.48794,0.01 0.61204,0.1181 -0.007,0.2117 -1.37518,0.208 -1.36837,0 -1.86909,-0.1004 -1.11276,-0.2148 z m -83.60165,-0.4835 c 0.47893,-0.1252 1.26263,-0.1252 1.74156,0 0.47893,0.1252 0.0871,0.2276 -0.87078,0.2276 -0.95786,0 -1.34971,-0.1024 -0.87078,-0.2276 z m 97.52731,0 c 0.47893,-0.1252 1.26263,-0.1252 1.74156,0 0.47893,0.1252 0.0871,0.2276 -0.87078,0.2276 -0.95786,0 -1.34971,-0.1024 -0.87078,-0.2276 z m -108.96239,-0.4994 c 0.48416,-0.1261 1.1559,-0.1179 1.49277,0.018 0.33692,0.1363 -0.0592,0.2395 -0.88023,0.2294 -0.82103,-0.01 -1.09664,-0.1217 -0.61254,-0.2479 z m 119.66054,0.015 c 0.34209,-0.138 0.90187,-0.138 1.24397,0 0.34209,0.138 0.0622,0.251 -0.62199,0.251 -0.68418,0 -0.96408,-0.113 -0.62198,-0.251 z m -129.11471,-0.5129 c 0.48415,-0.1261 1.15589,-0.1178 1.49276,0.018 0.33692,0.1363 -0.0592,0.2395 -0.88023,0.2294 -0.82102,-0.01 -1.09664,-0.1216 -0.61253,-0.2478 z m 137.57371,0.015 c 0.34209,-0.138 0.90188,-0.138 1.24397,0 0.34209,0.1381 0.0622,0.251 -0.62199,0.251 -0.68418,0 -0.96408,-0.1129 -0.62198,-0.251 z m -145.79337,-0.4975 c 0.34209,-0.138 0.90187,-0.138 1.24397,0 0.34209,0.138 0.0622,0.251 -0.62199,0.251 -0.68418,0 -0.96408,-0.113 -0.62198,-0.251 z m 153.78588,-0.01 c 0.35921,-0.1437 0.78838,-0.1261 0.95373,0.039 0.16534,0.1654 -0.12858,0.283 -0.65309,0.2614 -0.57969,-0.024 -0.69757,-0.1418 -0.30064,-0.3007 z m -161.21861,-0.4976 c 0.35921,-0.1437 0.78838,-0.1261 0.95373,0.039 0.16535,0.1654 -0.12858,0.283 -0.65309,0.2614 -0.57969,-0.024 -0.69757,-0.1418 -0.30064,-0.3006 z m 167.65616,0.01 c 0.34209,-0.138 0.90188,-0.138 1.24397,0 0.34209,0.138 0.0622,0.251 -0.62199,0.251 -0.68418,0 -0.96407,-0.113 -0.62198,-0.251 z m -174.6224,-0.5079 c 0.35921,-0.1438 0.78838,-0.1261 0.95373,0.039 0.16535,0.1653 -0.12857,0.283 -0.65308,0.2614 -0.57969,-0.024 -0.69757,-0.1419 -0.30065,-0.3007 z m 181.12214,0 c 0.35921,-0.1438 0.78838,-0.1261 0.95373,0.039 0.16535,0.1653 -0.12857,0.283 -0.65308,0.2614 -0.57969,-0.024 -0.69757,-0.1419 -0.30065,-0.3007 z m -187.62188,-0.4873 c 0.34209,-0.138 0.90188,-0.138 1.24397,0 0.34209,0.1381 0.0622,0.251 -0.62199,0.251 -0.68418,0 -0.96407,-0.1129 -0.62198,-0.251 z m -5.44237,-0.5079 c 0.3592,-0.1438 0.78837,-0.1261 0.95372,0.039 0.16535,0.1654 -0.12857,0.283 -0.65308,0.2614 -0.57969,-0.024 -0.69757,-0.1418 -0.30064,-0.3006 z m -5.97106,-0.4976 c 0.3592,-0.1437 0.78837,-0.1261 0.95372,0.039 0.16535,0.1654 -0.12857,0.283 -0.65308,0.2614 -0.57969,-0.024 -0.69757,-0.1418 -0.30064,-0.3006 z m 219.93402,-0.4976 c 0.35921,-0.1437 0.78838,-0.1261 0.95373,0.039 0.16535,0.1654 -0.12858,0.283 -0.65308,0.2614 -0.57969,-0.024 -0.69757,-0.1418 -0.30065,-0.3006 z m -234.86167,-0.9952 c 0.35919,-0.1437 0.78837,-0.126 0.95371,0.039 0.16534,0.1654 -0.12855,0.283 -0.65309,0.2614 -0.57966,-0.024 -0.69756,-0.1418 -0.30062,-0.3006 z m 243.81826,0 c 0.35921,-0.1437 0.78838,-0.126 0.95373,0.039 0.16535,0.1654 -0.12858,0.283 -0.65308,0.2614 -0.5797,-0.024 -0.69757,-0.1418 -0.30065,-0.3006 z m -569.40985,-14.7124 -3.46977,-3.6075 3.60751,3.4698 c 1.98413,1.9083 3.60752,3.5317 3.60752,3.6075 0,0.365 -0.52254,-0.1191 -3.74526,-3.4698 z m -15.69835,-16.1716 -1.20631,-1.3684 1.36837,1.2063 c 1.27895,1.1275 1.59656,1.5305 1.20631,1.5305 -0.0891,0 -0.7049,-0.6158 -1.36837,-1.3684 z m -7.48963,-7.9614 c -0.61894,-0.7893 -0.60134,-0.8068 0.18787,-0.1879 0.82885,0.65 1.09244,1.0587 0.68291,1.0587 -0.10333,0 -0.49518,-0.3919 -0.87078,-0.8708 z m 872.37508,-22.3086 c 0.024,-0.5796 0.1418,-0.6975 0.3006,-0.3006 0.1437,0.3592 0.1261,0.7884 -0.039,0.9537 -0.1654,0.1654 -0.283,-0.1285 -0.2614,-0.6531 z m -814.55208,-3.4831 c 0.0239,-0.5797 0.14178,-0.6975 0.30062,-0.3006 0.14374,0.3592 0.12606,0.7884 -0.0393,0.9537 -0.16534,0.1654 -0.28295,-0.1286 -0.26134,-0.6531 z m 4.19021,-6.676 c 1.06894,-1.0947 2.05549,-1.9903 2.19233,-1.9903 0.13683,0 -0.6258,0.8956 -1.69474,1.9903 -1.06894,1.0947 -2.05549,1.9904 -2.19232,1.9904 -0.13684,0 0.62579,-0.8957 1.69473,-1.9904 z m -73.64307,-9.4541 c 0.49535,-0.5474 1.01259,-0.9952 1.14942,-0.9952 0.13684,0 -0.15648,0.4478 -0.65183,0.9952 -0.49534,0.5473 -1.01258,0.9951 -1.14942,0.9951 -0.13683,0 0.15649,-0.4478 0.65183,-0.9951 z m 7.96142,-8.459 c 0.49534,-0.5474 1.01258,-0.9952 1.14942,-0.9952 0.13683,0 -0.15649,0.4478 -0.65184,0.9952 -0.49534,0.5473 -1.01258,0.9951 -1.14941,0.9951 -0.13684,0 0.15648,-0.4478 0.65183,-0.9951 z m 8.2102,-8.7078 c 0.64276,-0.6842 1.28061,-1.244 1.41745,-1.244 0.13683,0 -0.2771,0.5598 -0.91986,1.244 -0.64276,0.6841 -1.28061,1.2439 -1.41744,1.2439 -0.13684,0 0.27709,-0.5598 0.91985,-1.2439 z m 7.96142,-8.459 c 0.64276,-0.6842 1.2806,-1.244 1.41744,-1.244 0.13684,0 -0.2771,0.5598 -0.91986,1.244 -0.64276,0.6841 -1.2806,1.2439 -1.41744,1.2439 -0.13684,0 0.2771,-0.5598 0.91986,-1.2439 z m 7.96141,-8.459 c 0.64276,-0.6842 1.28061,-1.244 1.41744,-1.244 0.13684,0 -0.27709,0.5598 -0.91985,1.244 -0.64276,0.6841 -1.28061,1.2439 -1.41745,1.2439 -0.13683,0 0.2771,-0.5598 0.91986,-1.2439 z m 875.75539,-17.3547 c 0,-0.1033 0.3919,-0.4952 0.8708,-0.8708 0.7892,-0.6189 0.8068,-0.6013 0.1879,0.1879 -0.65,0.8288 -1.0587,1.0924 -1.0587,0.6829 z m 15.6741,-15.735 c 0.4953,-0.5473 1.0126,-0.9951 1.1494,-0.9951 0.1368,0 -0.1565,0.4478 -0.6518,0.9951 -0.4954,0.5474 -1.0126,0.9952 -1.1495,0.9952 -0.1368,0 0.1565,-0.4478 0.6519,-0.9952 z m -936.7735,-0.3732 c -0.61893,-0.7892 -0.60133,-0.8068 0.18787,-0.1878 0.47893,0.3756 0.87078,0.7674 0.87078,0.8708 0,0.4095 -0.40861,0.1459 -1.05865,-0.683 z m 84.65348,-8.27363 c 0,-0.10332 0.39185,-0.49517 0.87078,-0.87078 0.78921,-0.61893 0.80681,-0.60133 0.18787,0.18787 -0.65003,0.82886 -1.05865,1.09245 -1.05865,0.68291 z m 821.02072,-16.918 c 0,-0.10332 0.3918,-0.49517 0.8708,-0.87078 0.7892,-0.61893 0.8068,-0.60133 0.1879,0.18787 -0.6501,0.82886 -1.0587,1.09245 -1.0587,0.68291 z m 6.4686,-5.93889 c 0,-0.0856 0.7278,-0.81336 1.6172,-1.61716 l 1.6172,-1.46146 -1.4615,1.61716 c -1.3623,1.50742 -1.7729,1.84588 -1.7729,1.46146 z m -889.25374,-2.20784 c -0.61893,-0.78921 -0.60133,-0.80681 0.18787,-0.18787 0.47893,0.3756 0.87078,0.76745 0.87078,0.87078 0,0.40953 -0.40861,0.14594 -1.05865,-0.68291 z m 38.37777,-34.14827 c 0,-0.10333 0.39185,-0.49518 0.87078,-0.87078 0.78921,-0.61894 0.80681,-0.60134 0.18787,0.18787 -0.65003,0.82885 -1.05865,1.09244 -1.05865,0.68291 z M 35.116293,431.13477 c -0.61894,-0.7892 -0.60134,-0.8068 0.18787,-0.18787 0.82885,0.65004 1.09244,1.05865 0.68291,1.05865 -0.10333,0 -0.49518,-0.39185 -0.87078,-0.87078 z M 1148.2848,424.79132 c 0.6427,-0.68418 1.2806,-1.24397 1.4174,-1.24397 0.1369,0 -0.2771,0.55979 -0.9198,1.24397 -0.6427,0.68418 -1.2806,1.24397 -1.4174,1.24397 -0.1369,0 0.2771,-0.55979 0.9198,-1.24397 z M 27.154883,423.17416 c -0.61894,-0.78921 -0.60134,-0.80681 0.18786,-0.18787 0.82886,0.65003 1.09245,1.05865 0.68292,1.05865 -0.10333,0 -0.49518,-0.39185 -0.87078,-0.87078 z M 1155.7486,416.89083 c 0,-0.10332 0.3919,-0.49517 0.8708,-0.87078 0.7892,-0.61893 0.8068,-0.60133 0.1879,0.18787 -0.6501,0.82886 -1.0587,1.09245 -1.0587,0.68291 z M 103.10056,405.13658 c 0.16914,-0.27367 0.40627,-0.49759 0.52696,-0.49759 0.12068,0 0.21942,0.22392 0.21942,0.49759 0,0.27368 -0.23713,0.49759 -0.52695,0.49759 -0.28983,0 -0.38857,-0.22391 -0.21943,-0.49759 z m -8.771257,-6.84184 c -0.61894,-0.7892 -0.60134,-0.8068 0.18786,-0.18787 0.47893,0.37561 0.87078,0.76746 0.87078,0.87078 0,0.40954 -0.40861,0.14595 -1.05864,-0.68291 z M 173.051,396.38732 c 0.0239,-0.57966 0.14178,-0.69757 0.30062,-0.30063 0.14374,0.3592 0.12607,0.78837 -0.0393,0.95372 -0.16534,0.16534 -0.28295,-0.12855 -0.26134,-0.65309 z m 0.63768,-10.15909 c 0,-2.5999 0.0839,-3.6635 0.18637,-2.36355 0.1025,1.29995 0.1025,3.42714 0,4.72709 -0.1025,1.29995 -0.18637,0.23636 -0.18637,-2.36354 z m -88.813557,2.61234 c -0.61894,-0.78921 -0.60134,-0.80681 0.18787,-0.18787 0.47893,0.3756 0.87078,0.76745 0.87078,0.87078 0,0.40953 -0.40862,0.14594 -1.05865,-0.68291 z M 4.9941727,372.29575 c 0,-2.05255 0.0878,-2.89223 0.19518,-1.86595 0.10735,1.02627 0.10735,2.70563 0,3.73191 -0.10735,1.02628 -0.19518,0.1866 -0.19518,-1.86596 z M 1106.1052,370.80299 c 0,-0.95786 0.1024,-1.34971 0.2276,-0.87078 0.1252,0.47893 0.1252,1.26263 0,1.74156 -0.1252,0.47893 -0.2276,0.0871 -0.2276,-0.87078 z m -115.95651,-2.73674 c 0.01,-0.82102 0.12166,-1.09665 0.24785,-0.61251 0.12614,0.48414 0.11788,1.15588 -0.0184,1.49276 -0.13629,0.33688 -0.23949,-0.0592 -0.22939,-0.88025 z m 143.20841,-9.95176 c 1.4865,-1.50521 2.8148,-2.73674 2.9516,-2.73674 0.1368,0 -0.9675,1.23153 -2.454,2.73674 -1.4865,1.5052 -2.8147,2.73673 -2.9515,2.73673 -0.1368,0 0.9675,-1.23153 2.4539,-2.73673 z m -111.9181,-1.03664 c 0.024,-0.57967 0.1419,-0.69757 0.3007,-0.30063 0.1437,0.35919 0.1261,0.78837 -0.039,0.95371 -0.1654,0.16535 -0.283,-0.12854 -0.2614,-0.65308 z m -745.5451,-1.55443 c 0.61895,-0.11902 1.51461,-0.1145 1.99035,0.01 0.47574,0.12454 -0.0307,0.22192 -1.12538,0.2164 -1.09469,-0.006 -1.48393,-0.10743 -0.86497,-0.22644 z m 659.30452,0 c 0.61895,-0.11902 1.51461,-0.1145 1.99035,0.01 0.4757,0.12454 -0.0308,0.22192 -1.12539,0.2164 -1.0947,-0.006 -1.48396,-0.10743 -0.86496,-0.22644 z m -672.73941,-0.49759 c 0.61896,-0.11902 1.51462,-0.1145 1.99036,0.01 0.47574,0.12454 -0.0307,0.22192 -1.12538,0.2164 -1.09469,-0.006 -1.48393,-0.10742 -0.86498,-0.22644 z m 686.41727,0.009 c 0.47893,-0.12515 1.26263,-0.12515 1.74156,0 0.47892,0.12516 0.0871,0.22757 -0.87078,0.22757 -0.95786,0 -1.34971,-0.10241 -0.87078,-0.22757 z m 156.82862,-10.60392 c 0,-6.15766 0.072,-8.6767 0.1588,-5.59787 0.087,3.07883 0.087,8.11691 0,11.19574 -0.087,3.07883 -0.1588,0.55979 -0.1588,-5.59787 z m -857.17836,10.09733 c 0.61896,-0.11902 1.51461,-0.1145 1.99035,0.01 0.47574,0.12454 -0.0307,0.22193 -1.12537,0.2164 -1.0947,-0.006 -1.48393,-0.10742 -0.86498,-0.22644 z m 714.03924,0 c 0.61895,-0.11902 1.51461,-0.1145 1.99035,0.01 0.47569,0.12454 -0.0308,0.22193 -1.1254,0.2164 -1.09469,-0.006 -1.48395,-0.10742 -0.86495,-0.22644 z m -726.72407,-0.49049 c 0.48414,-0.12616 1.15588,-0.11786 1.49276,0.0185 0.33688,0.13631 -0.0592,0.23953 -0.88025,0.22939 -0.82102,-0.0102 -1.09665,-0.12166 -0.61251,-0.24782 z m 740.41138,0 c 0.48415,-0.12616 1.1559,-0.11786 1.49276,0.0185 0.33692,0.13631 -0.0592,0.23953 -0.88023,0.22939 -0.82102,-0.0102 -1.09664,-0.12166 -0.61253,-0.24782 z m -565.14537,-8.12713 c -25.4806,-2.08501 -45.86522,-9.6566 -58.5096,-21.73259 -8.05214,-7.6902 -10.57613,-12.58819 -11.61498,-22.53981 l -0.28569,-2.73674 1.02566,2.9315 c 3.60992,10.31771 15.8372,20.97065 31.44187,27.39353 20.69769,8.51916 46.84621,10.5424 89.94071,6.95918 18.63813,-1.54973 32.40063,-3.29262 70.40875,-8.91664 51.29787,-7.59048 67.06112,-9.36042 119.66998,-13.43695 58.08562,-4.5009 83.76581,-7.83617 111.45013,-14.47483 29.60028,-7.09811 50.82824,-19.08647 62.92367,-35.53576 4.14675,-5.63942 7.63967,-13.83749 7.81358,-18.33879 0.1024,-2.65099 0.81176,2.74676 0.8759,6.66531 0.17784,10.85959 -8.83567,24.64678 -22.95907,35.11865 -14.20236,10.53041 -31.61621,17.39752 -57.74701,22.77237 -26.95491,5.54438 -49.64215,8.28064 -101.61082,12.25507 -50.72111,3.87902 -68.9514,5.93579 -121.16275,13.66976 -39.70412,5.8813 -54.76818,7.71166 -75.88221,9.22007 -12.92019,0.92304 -38.42971,1.32797 -45.77812,0.72667 z m 779.55068,-4.46534 c 0,-0.68418 0.1129,-0.96408 0.251,-0.62199 0.138,0.3421 0.138,0.90188 0,1.24398 -0.1381,0.34209 -0.251,0.0622 -0.251,-0.62199 z m 0,-13.43488 c 0,-0.68419 0.1129,-0.96408 0.251,-0.62199 0.138,0.34209 0.138,0.90188 0,1.24397 -0.1381,0.34209 -0.251,0.0622 -0.251,-0.62198 z m -84.5716,-7.71262 c 0.01,-0.82102 0.1216,-1.09666 0.2478,-0.61252 0.1262,0.48414 0.1179,1.15588 -0.018,1.49277 -0.1363,0.33688 -0.2395,-0.0592 -0.2294,-0.88025 z m -962.94476,-2.61234 -3.21995,-3.35872 3.35872,3.21995 c 1.8473,1.77097 3.35873,3.28239 3.35873,3.35872 0,0.36623 -0.50667,-0.10023 -3.4975,-3.21995 z M 33.438203,313.08275 c 1.34779,-1.36837 2.56249,-2.48794 2.69933,-2.48794 0.13683,0 -0.85395,1.11957 -2.20174,2.48794 -1.34779,1.36837 -2.56249,2.48794 -2.69933,2.48794 -0.13683,0 0.85395,-1.11957 2.20174,-2.48794 z M 1106.5659,311.58998 c 0,-0.68418 0.113,-0.96407 0.251,-0.62198 0.1381,0.34209 0.1381,0.90188 0,1.24397 -0.138,0.34209 -0.251,0.0622 -0.251,-0.62199 z m -60.7843,-6.15893 c 0,-0.10332 0.3919,-0.49517 0.8708,-0.87078 0.7892,-0.61893 0.8068,-0.60133 0.1879,0.18787 -0.6501,0.82886 -1.0587,1.09245 -1.0587,0.68291 z m 61.2426,-0.59997 c 0.024,-0.57967 0.1418,-0.69757 0.3007,-0.30063 0.1437,0.35919 0.1261,0.78837 -0.039,0.95371 -0.1654,0.16534 -0.283,-0.12855 -0.2614,-0.65308 z m -714.80051,-6.23812 c -20.62791,-0.94027 -34.74935,-3.42403 -40.14658,-7.06122 -1.91881,-1.29309 -3.91431,-4.05362 -3.91431,-5.41496 0,-1.48265 2.22871,-3.38692 3.96396,-3.38692 1.47391,0 1.51291,-0.0581 1.25281,-1.86595 -0.34351,-2.38758 -4.52363,-40.00721 -4.97567,-44.77933 -0.28902,-3.05119 -0.21922,-3.65076 0.45514,-3.90955 0.68119,-0.26139 0.81267,-1.54073 0.90804,-8.83581 l 0.11152,-8.53016 0.14936,8.34564 c 0.14597,8.1567 0.17178,8.33365 1.13983,7.81556 0.74448,-0.39843 1.03883,-0.37028 1.18516,0.11336 0.10708,0.35389 1.55883,12.94719 3.22613,27.9851 1.66729,15.03792 3.22971,27.53994 3.47204,27.78226 0.24233,0.24233 2.02935,0.85771 3.97116,1.36752 3.16661,0.83137 5.87698,1.26022 18.94104,2.99695 8.34588,1.1095 34.77862,1.61136 55.25321,1.04906 11.0312,-0.30295 20.13595,-0.63004 20.23277,-0.72686 0.0968,-0.0968 -0.27531,-3.38064 -0.82697,-7.29736 -5.27154,-37.42763 -9.67575,-85.19319 -11.46834,-124.37922 -0.76924,-16.81528 -0.33914,-52.84762 0.7503,-62.859315 1.38872,-12.7619 4.44891,-28.002375 5.93903,-29.577755 0.51392,-0.54332 7.66623,-4.62817 8.10364,-4.62817 0.1026,0 -0.17956,0.83968 -0.62704,1.86596 -3.69958,8.48488 -6.13337,20.869335 -7.74954,39.43387 -0.81093,9.31493 -0.80153,45.80835 0.0156,60.70578 2.14881,39.17422 6.16083,81.65887 11.04255,116.93324 1.46892,10.61413 0.73766,9.45418 5.96008,9.45418 3.28662,0 4.46881,-0.16759 4.46881,-0.63349 0,-0.34842 -0.77469,-6.00227 -1.72153,-12.56411 -5.2288,-36.2368 -8.80677,-72.01942 -11.8156,-118.16571 -0.88036,-13.50211 -0.86566,-62.616815 0.0215,-71.901505 0.99272,-10.38925 2.37134,-19.150455 4.12947,-26.242985 l 1.57144,-6.33945 2.29019,-1.45285 c 1.87062,-1.18668 5.69725,-3.03505 6.28338,-3.03505 0.0769,0 -0.49834,1.51863 -1.27819,3.37474 -3.00345,7.14841 -5.34689,18.89739 -6.79582,34.071105 -1.18987,12.460845 -1.17638,50.951125 0.0247,70.530825 2.21559,36.1172 5.45273,70.62284 9.56964,102.0056 1.77355,13.51965 4.10629,29.44041 4.34926,29.68338 0.16101,0.16101 25.39149,-1.50822 38.90087,-2.57366 45.47882,-3.58676 97.6105,-9.48915 143.05663,-16.19697 16.77679,-2.47624 35.05978,-5.50233 35.37629,-5.85526 0.92845,-1.03536 -4.37355,-54.30422 -8.27793,-83.1672 -10.61594,-78.47851 -22.56214,-127.08124 -36.25453,-147.50014 -1.26611,-1.88813 -2.20133,-3.53365 -2.07828,-3.65673 0.42101,-0.42101 5.01246,0.4555 6.74183,1.28702 5.66534,2.72403 15.94611,30.8515 23.35391,63.894515 8.87657,39.594615 17.99752,104.216555 22.21129,157.367595 0.45559,5.74715 0.90785,10.53348 1.00503,10.63628 0.0971,0.10281 2.0011,-0.10937 4.23104,-0.47151 2.6313,-0.42731 4.15273,-0.91453 4.33445,-1.38805 0.58994,-1.53736 -2.37166,-31.59875 -5.86488,-59.53072 C 695.90277,119.25436 683.10406,65.4607 668.37599,43.4568 l -2.63592,-3.93813 3.54954,0.98972 c 5.74939,1.6031 5.77029,1.62099 8.8824,7.60859 11.74065,22.58826 21.51383,62.73876 30.70394,126.13863 3.46077,23.87457 6.64987,50.52164 8.48602,70.90633 0.54232,6.02082 1.11947,12.33744 1.28253,14.03694 l 0.29651,3.08999 1.5797,-0.29122 c 29.6991,-5.47528 60.30705,-12.82949 75.47155,-18.13367 7.13497,-2.49565 18.42177,-7.57973 18.39903,-8.28776 -0.006,-0.20132 -1.42231,-12.85159 -3.1463,-28.1117 -1.724,-15.26011 -3.05141,-27.82877 -2.94981,-27.93035 0.46818,-0.46822 4.11312,0.89639 4.32668,1.61985 0.37727,1.27803 5.76188,47.17862 5.76188,49.11649 0,0.0825 0.72777,0.0319 1.61731,-0.11244 2.20421,-0.35769 4.35375,1.30684 4.35375,3.37138 0,7.62361 -16.43878,15.29005 -51.56503,24.04802 -98.06077,24.44934 -290.05296,45.14129 -380.56608,41.01549 z m 661.27051,-0.93545 c 0.4954,-0.54735 1.0126,-0.99518 1.1495,-0.99518 0.1368,0 -0.1565,0.44783 -0.6519,0.99518 -0.4953,0.54735 -1.0126,0.99518 -1.1494,0.99518 -0.1369,0 0.1565,-0.44783 0.6518,-0.99518 z m -713.19581,-2.23915 c 0.0102,-0.82102 0.12166,-1.09665 0.24782,-0.61251 0.12616,0.48413 0.11786,1.15588 -0.0185,1.49276 -0.13631,0.33688 -0.23953,-0.0592 -0.22939,-0.88025 z m 590.24425,-7.83701 -0.94791,-1.11958 1.11957,0.9479 c 1.0521,0.8908 1.34608,1.29125 0.94791,1.29125 -0.0944,0 -0.59825,-0.50381 -1.11957,-1.11957 z m -64.75246,-4.3539 c 0,-1.23153 0.097,-1.73534 0.2156,-1.11957 0.11863,0.61576 0.11863,1.62338 0,2.23914 -0.11857,0.61577 -0.2156,0.11196 -0.2156,-1.11957 z m 0.48753,-14.67886 c 0.005,-1.09469 0.10743,-1.48393 0.22646,-0.86497 0.11902,0.61895 0.11449,1.51461 -0.01,1.99035 -0.12455,0.47574 -0.22193,-0.0307 -0.21641,-1.12538 z m 0.49759,-14.92764 c 0.005,-1.0947 0.10743,-1.48394 0.22646,-0.86498 0.11902,0.61895 0.11449,1.51461 -0.01,1.99035 -0.12454,0.47574 -0.22192,-0.0307 -0.2164,-1.12537 z m -340.83963,-7.06227 c 0.48415,-0.12616 1.1559,-0.11786 1.49276,0.0185 0.33692,0.13631 -0.0592,0.23952 -0.88023,0.22938 -0.82102,-0.0101 -1.09663,-0.12166 -0.61253,-0.24781 z m 4.47829,-0.49759 c 0.48416,-0.12616 1.1559,-0.11786 1.49277,0.0185 0.33692,0.13631 -0.0592,0.23953 -0.88024,0.22939 -0.82102,-0.0102 -1.09663,-0.12166 -0.61253,-0.24782 z m 4.71764,-0.48231 c 0.34209,-0.13803 0.90188,-0.13803 1.24397,0 0.34209,0.13804 0.0622,0.25098 -0.62199,0.25098 -0.68418,0 -0.96407,-0.11294 -0.62198,-0.25098 z m -13.21351,-1.41201 c 0.01,-0.82102 0.12166,-1.09666 0.24785,-0.61252 0.12614,0.48414 0.11788,1.15588 -0.0184,1.49277 -0.13629,0.33688 -0.23949,-0.0592 -0.22939,-0.88025 z m 17.6918,0.91443 c 0.34209,-0.13804 0.90188,-0.13804 1.24397,0 0.3421,0.13803 0.0622,0.25097 -0.62198,0.25097 -0.68419,0 -0.96408,-0.11294 -0.62199,-0.25097 z m 4.4783,-0.49759 c 0.34209,-0.13804 0.90188,-0.13804 1.24397,0 0.34209,0.13803 0.0622,0.25098 -0.62199,0.25098 -0.68418,0 -0.96407,-0.11295 -0.62198,-0.25098 z m 4.47829,-0.49759 c 0.34209,-0.13804 0.90188,-0.13804 1.24397,0 0.34209,0.13804 0.0622,0.25098 -0.62198,0.25098 -0.68419,0 -0.96408,-0.11294 -0.62199,-0.25098 z m 4.4783,-0.49759 c 0.34209,-0.13803 0.90188,-0.13803 1.24397,0 0.34209,0.13804 0.0622,0.25098 -0.62199,0.25098 -0.68418,0 -0.96408,-0.11294 -0.62198,-0.25098 z m 4.47829,-0.49759 c 0.34209,-0.13803 0.90188,-0.13803 1.24397,0 0.34209,0.13804 0.0622,0.25098 -0.62198,0.25098 -0.68419,0 -0.96408,-0.11294 -0.62199,-0.25098 z m 4.73654,-0.51287 c 0.48416,-0.12615 1.1559,-0.11786 1.49277,0.0185 0.33692,0.13631 -0.0592,0.23953 -0.88023,0.22939 -0.82103,-0.0102 -1.09664,-0.12166 -0.61254,-0.24782 z m 4.4783,-0.49758 c 0.48415,-0.12616 1.1559,-0.11787 1.49276,0.0185 0.33692,0.1363 -0.0592,0.23952 -0.88023,0.22938 -0.82102,-0.0102 -1.09663,-0.12166 -0.61253,-0.24782 z m 4.47829,-0.49759 c 0.48416,-0.12616 1.1559,-0.11787 1.49277,0.0185 0.33692,0.1363 -0.0592,0.23952 -0.88023,0.22938 -0.82103,-0.0102 -1.09664,-0.12166 -0.61254,-0.24782 z m 4.4783,-0.49759 c 0.48415,-0.12616 1.1559,-0.11786 1.49276,0.0185 0.33692,0.1363 -0.0592,0.23952 -0.88023,0.22938 -0.82102,-0.0102 -1.09664,-0.12166 -0.61253,-0.24782 z m 4.47829,-0.49759 c 0.48416,-0.12616 1.1559,-0.11786 1.49277,0.0185 0.33692,0.13631 -0.0592,0.23953 -0.88024,0.22938 -0.82102,-0.0101 -1.09663,-0.12166 -0.61253,-0.24781 z m -58.7707,-1.14794 c 0,-0.68418 0.11295,-0.96408 0.25099,-0.62199 0.13803,0.3421 0.13803,0.90188 0,1.24397 -0.13804,0.3421 -0.25099,0.0622 -0.25099,-0.62198 z m 63.249,0.65035 c 0.48415,-0.12616 1.1559,-0.11786 1.49276,0.0185 0.33692,0.13631 -0.0592,0.23953 -0.88023,0.22939 -0.82102,-0.0102 -1.09664,-0.12166 -0.61253,-0.24782 z m 282.53557,-0.44302 c 0.0239,-0.57967 0.14181,-0.69757 0.30064,-0.30063 0.14376,0.3592 0.12609,0.78837 -0.0393,0.95371 -0.16535,0.16535 -0.28298,-0.12854 -0.26138,-0.65308 z m -278.05728,-0.0546 c 0.48416,-0.12615 1.1559,-0.11786 1.49277,0.0185 0.33691,0.13631 -0.0592,0.23953 -0.88024,0.22939 -0.82102,-0.0101 -1.09663,-0.12166 -0.61253,-0.24782 z m 4.4783,-0.49758 c 0.48415,-0.12616 1.15589,-0.11787 1.49276,0.0185 0.33692,0.1363 -0.0592,0.23952 -0.88023,0.22938 -0.82102,-0.0101 -1.09664,-0.12166 -0.61253,-0.24782 z m 4.71763,-0.48231 c 0.34209,-0.13804 0.90188,-0.13804 1.24397,0 0.34209,0.13803 0.0622,0.25098 -0.62198,0.25098 -0.68419,0 -0.96408,-0.11295 -0.62199,-0.25098 z m 4.4783,-0.49759 c 0.34209,-0.13804 0.90188,-0.13804 1.24397,0 0.34209,0.13804 0.0622,0.25098 -0.62199,0.25098 -0.68418,0 -0.96408,-0.11294 -0.62198,-0.25098 z m 4.47829,-0.49759 c 0.34209,-0.13803 0.90188,-0.13803 1.24397,0 0.34209,0.13804 0.0622,0.25098 -0.62198,0.25098 -0.68419,0 -0.96408,-0.11294 -0.62199,-0.25098 z m 4.4783,-0.49759 c 0.34209,-0.13803 0.90187,-0.13803 1.24397,0 0.34209,0.13804 0.0622,0.25098 -0.62199,0.25098 -0.68418,0 -0.96408,-0.11294 -0.62198,-0.25098 z m 4.47829,-0.49758 c 0.34209,-0.13804 0.90188,-0.13804 1.24397,0 0.34209,0.13803 0.0622,0.25097 -0.62198,0.25097 -0.68419,0 -0.96408,-0.11294 -0.62199,-0.25097 z m 4.4783,-0.49759 c 0.34209,-0.13804 0.90187,-0.13804 1.24397,0 0.34209,0.13803 0.0622,0.25098 -0.62199,0.25098 -0.68418,0 -0.96408,-0.11295 -0.62198,-0.25098 z m -99.81229,-1.16323 c 0,-0.68418 0.11296,-0.96407 0.25099,-0.62198 0.13803,0.34209 0.13803,0.90188 0,1.24397 -0.13803,0.34209 -0.25099,0.0622 -0.25099,-0.62199 z m 104.54883,0.65036 c 0.48415,-0.12616 1.1559,-0.11787 1.49276,0.0185 0.33692,0.1363 -0.0592,0.23952 -0.88023,0.22938 -0.82102,-0.0102 -1.09664,-0.12166 -0.61253,-0.24782 z m 4.47829,-0.49759 c 0.48416,-0.12616 1.1559,-0.11786 1.49277,0.0185 0.33691,0.1363 -0.0592,0.23952 -0.88024,0.22938 -0.82102,-0.0102 -1.09663,-0.12166 -0.61253,-0.24782 z m 4.4783,-0.49759 c 0.48415,-0.12616 1.1559,-0.11786 1.49276,0.0185 0.33692,0.13631 -0.0592,0.23953 -0.88023,0.22938 -0.82102,-0.0102 -1.09664,-0.12166 -0.61253,-0.24781 z m 4.47829,-0.49759 c 0.48416,-0.12616 1.1559,-0.11786 1.49277,0.0185 0.33691,0.13631 -0.0592,0.23953 -0.88024,0.22939 -0.82102,-0.0102 -1.09663,-0.12166 -0.61253,-0.24782 z m 4.4783,-0.49759 c 0.48415,-0.12615 1.15589,-0.11786 1.49276,0.0185 0.33692,0.1363 -0.0592,0.23952 -0.88023,0.22938 -0.82102,-0.0102 -1.09664,-0.12166 -0.61253,-0.24782 z m 4.22004,-0.4823 c 0.3421,-0.13804 0.90188,-0.13804 1.24397,0 0.3421,0.13803 0.0622,0.25098 -0.62198,0.25098 -0.68419,0 -0.96408,-0.11295 -0.62199,-0.25098 z m 1.19815,-2.1584 c 0,-0.68419 0.11295,-0.96408 0.25098,-0.62199 0.13803,0.3421 0.13803,0.90188 0,1.24397 -0.13803,0.3421 -0.25098,0.0622 -0.25098,-0.62198 z m -128.37778,-0.49759 c 0,-0.68418 0.11295,-0.96408 0.25098,-0.62199 0.13803,0.3421 0.13803,0.90188 0,1.24398 -0.13803,0.34209 -0.25098,0.0622 -0.25098,-0.62199 z m 127.88019,-3.98071 c 0,-0.68418 0.11295,-0.96407 0.25098,-0.62198 0.13803,0.34209 0.13803,0.90188 0,1.24397 -0.13803,0.34209 -0.25098,0.0622 -0.25098,-0.62199 z m -128.37778,-0.49758 c 0,-0.68419 0.11295,-0.96408 0.25098,-0.62199 0.13803,0.34209 0.13803,0.90188 0,1.24397 -0.13803,0.34209 -0.25098,0.0622 -0.25098,-0.62198 z m 127.88019,-3.98071 c 0,-0.68418 0.11295,-0.96408 0.25098,-0.62199 0.13803,0.3421 0.13803,0.90188 0,1.24397 -0.13803,0.3421 -0.25098,0.0622 -0.25098,-0.62198 z m -128.37778,-0.49759 c 0,-0.68418 0.11295,-0.96408 0.25098,-0.62198 0.13803,0.34209 0.13803,0.90187 0,1.24397 -0.13803,0.34209 -0.25098,0.0622 -0.25098,-0.62199 z m 127.8986,-4.2295 c 0.01,-0.82102 0.12166,-1.09665 0.24785,-0.61252 0.12614,0.48414 0.11788,1.15589 -0.0184,1.49277 -0.13629,0.33688 -0.23949,-0.0592 -0.22939,-0.88025 z m -128.39619,-0.24879 c 0,-0.68419 0.11295,-0.96408 0.25098,-0.62199 0.13804,0.34209 0.13804,0.90188 0,1.24397 -0.13803,0.34209 -0.25098,0.0622 -0.25098,-0.62198 z m 127.8986,-4.2295 c 0.01,-0.82103 0.12166,-1.09666 0.24785,-0.61252 0.12614,0.48414 0.11788,1.15588 -0.0184,1.49276 -0.13629,0.33689 -0.23949,-0.0592 -0.22939,-0.88024 z m -128.39619,-0.2488 c 0,-0.68418 0.11295,-0.96408 0.25099,-0.62198 0.13803,0.34209 0.13803,0.90187 0,1.24397 -0.13804,0.34209 -0.25099,0.0622 -0.25099,-0.62199 z m -168.16641,-2.23915 c 0.0102,-0.82102 0.12166,-1.09665 0.24782,-0.61251 0.12616,0.48414 0.11787,1.15588 -0.0185,1.49276 -0.1363,0.33689 -0.23952,-0.0592 -0.22938,-0.88025 z m 296.06502,-1.99035 c 0.01,-0.82102 0.12166,-1.09665 0.24784,-0.61252 0.12614,0.48414 0.11788,1.15589 -0.0184,1.49277 -0.13629,0.33688 -0.23949,-0.0592 -0.22938,-0.88025 z m -128.37779,-0.49759 c 0.01,-0.82102 0.12167,-1.09665 0.24785,-0.61251 0.12614,0.48413 0.11788,1.15588 -0.0184,1.49276 -0.13629,0.33688 -0.23949,-0.0592 -0.22939,-0.88025 z M 350.7293,205.60365 c 0,-0.68419 0.11294,-0.96408 0.25098,-0.62199 0.13804,0.34209 0.13804,0.90188 0,1.24397 -0.13804,0.34209 -0.25098,0.0622 -0.25098,-0.62198 z m 295.08828,-1.74156 c 0.01,-0.82102 0.12166,-1.09666 0.24785,-0.61252 0.12613,0.48414 0.11787,1.15588 -0.0184,1.49276 -0.13629,0.33689 -0.23949,-0.0592 -0.22939,-0.88024 z M 517.4398,203.3645 c 0.01,-0.82102 0.12166,-1.09666 0.24785,-0.61252 0.12613,0.48414 0.11787,1.15588 -0.0184,1.49277 -0.13629,0.33688 -0.23948,-0.0592 -0.22938,-0.88025 z m -166.25219,-1.53423 c 0.0239,-0.57967 0.14178,-0.69757 0.30062,-0.30063 0.14374,0.3592 0.12607,0.78837 -0.0393,0.95371 -0.16534,0.16535 -0.28295,-0.12854 -0.26134,-0.65308 z m 294.13238,-2.44648 c 0.01,-0.82102 0.12166,-1.09665 0.24785,-0.61251 0.12614,0.48413 0.11788,1.15588 -0.0184,1.49276 -0.13629,0.33688 -0.23949,-0.0592 -0.22939,-0.88025 z M 516.94221,198.8862 c 0.01,-0.82102 0.12166,-1.09665 0.24785,-0.61251 0.12614,0.48414 0.11788,1.15588 -0.0184,1.49276 -0.13629,0.33688 -0.23949,-0.0592 -0.22939,-0.88025 z M 351.6852,198.8448 c 0.0239,-0.57966 0.14178,-0.69756 0.30062,-0.30062 0.14374,0.35919 0.12607,0.78837 -0.0393,0.95371 -0.16534,0.16534 -0.28295,-0.12855 -0.26134,-0.65309 z m 293.1372,-3.93925 c 0.01,-0.82102 0.12166,-1.09666 0.24785,-0.61252 0.12614,0.48414 0.11788,1.15588 -0.0184,1.49277 -0.13629,0.33688 -0.23949,-0.0592 -0.22939,-0.88025 z m -128.37778,-0.49764 c 0.01,-0.82102 0.12166,-1.09666 0.24785,-0.61252 0.12614,0.48414 0.11788,1.15589 -0.0184,1.49277 -0.13629,0.33688 -0.23949,-0.0592 -0.22939,-0.88025 z m 127.88019,-3.98071 c 0.01,-0.82102 0.12166,-1.09665 0.24785,-0.61251 0.12614,0.48413 0.11788,1.15588 -0.0184,1.49276 -0.13629,0.33688 -0.23949,-0.0592 -0.22939,-0.88025 z m -128.37778,-0.49759 c 0.01,-0.82102 0.12166,-1.09665 0.24785,-0.61251 0.12614,0.48414 0.11788,1.15588 -0.0184,1.49276 -0.13629,0.33688 -0.23949,-0.0592 -0.22939,-0.88025 z m -0.49759,-4.47829 c 0.01,-0.82102 0.12166,-1.09666 0.24785,-0.61252 0.12614,0.48414 0.11788,1.15589 -0.0184,1.49277 -0.13629,0.33688 -0.23949,-0.0592 -0.22939,-0.88025 z m 128.35937,0.24879 c 0,-0.68418 0.11296,-0.96407 0.25099,-0.62198 0.13803,0.34209 0.13803,0.90188 0,1.24397 -0.13803,0.34209 -0.25099,0.0622 -0.25099,-0.62199 z m -128.85696,-4.72709 c 0.01,-0.82102 0.12167,-1.09665 0.24785,-0.61251 0.12614,0.48414 0.11788,1.15588 -0.0184,1.49276 -0.13629,0.33689 -0.23949,-0.0592 -0.22939,-0.88025 z m 128.35937,0.2488 c 0,-0.68419 0.11296,-0.96408 0.25099,-0.62199 0.13803,0.3421 0.13803,0.90188 0,1.24397 -0.13803,0.3421 -0.25099,0.0622 -0.25099,-0.62198 z m 166.65277,-3.27579 c 0.0239,-0.57966 0.14182,-0.69757 0.30065,-0.30063 0.14375,0.3592 0.12609,0.78837 -0.0393,0.95372 -0.16535,0.16534 -0.28298,-0.12855 -0.26138,-0.65309 z m -167.15035,-1.20251 c 0,-0.68418 0.11295,-0.96407 0.25098,-0.62198 0.13803,0.34209 0.13803,0.90188 0,1.24397 -0.13803,0.34209 -0.25098,0.0622 -0.25098,-0.62199 z m -128.37778,-0.49758 c 0,-0.68419 0.11295,-0.96408 0.25098,-0.62199 0.13803,0.34209 0.13803,0.90188 0,1.24397 -0.13803,0.34209 -0.25098,0.0622 -0.25098,-0.62198 z m 127.88019,-3.98071 c 0,-0.68418 0.11295,-0.96408 0.25098,-0.62199 0.13803,0.3421 0.13803,0.90188 0,1.24397 -0.13803,0.3421 -0.25098,0.0622 -0.25098,-0.62198 z m -128.37778,-0.49759 c 0,-0.68418 0.11295,-0.96408 0.25098,-0.62198 0.13803,0.34209 0.13803,0.90187 0,1.24397 -0.13803,0.34209 -0.25098,0.0622 -0.25098,-0.62199 z m 127.88019,-3.98071 c 0,-0.68418 0.11295,-0.96407 0.25098,-0.62198 0.13803,0.34209 0.13803,0.90188 0,1.24397 -0.13803,0.34209 -0.25098,0.0622 -0.25098,-0.62199 z m -128.37778,-0.49758 c 0,-0.68419 0.11295,-0.96408 0.25098,-0.62199 0.13803,0.34209 0.13803,0.90188 0,1.24397 -0.13803,0.34209 -0.25098,0.0622 -0.25098,-0.62198 z m 127.88019,-3.98071 c 0,-0.68418 0.11295,-0.96408 0.25099,-0.62199 0.13803,0.3421 0.13803,0.90188 0,1.24398 -0.13804,0.34209 -0.25099,0.0622 -0.25099,-0.62199 z m -128.37778,-0.49759 c 0,-0.68418 0.11295,-0.96408 0.25098,-0.62198 0.13804,0.34209 0.13804,0.90188 0,1.24397 -0.13803,0.34209 -0.25098,0.0622 -0.25098,-0.62199 z m 127.8986,-4.2295 c 0.01,-0.82102 0.12166,-1.09665 0.24785,-0.61251 0.12614,0.48413 0.11788,1.15588 -0.0184,1.49276 -0.13629,0.33688 -0.23949,-0.0592 -0.22939,-0.88025 z M 512.4455,158.33276 c 0,-0.68419 0.11296,-0.96408 0.25099,-0.62199 0.13803,0.34209 0.13803,0.90188 0,1.24397 -0.13803,0.34209 -0.25099,0.0622 -0.25099,-0.62198 z m 127.89861,-4.2295 c 0.01,-0.82102 0.12166,-1.09666 0.24784,-0.61252 0.12614,0.48414 0.11788,1.15588 -0.0184,1.49277 -0.13629,0.33688 -0.23949,-0.0592 -0.22938,-0.88025 z m -128.3962,-0.2488 c 0,-0.68418 0.11296,-0.96407 0.25099,-0.62198 0.13803,0.34209 0.13803,0.90188 0,1.24397 -0.13803,0.34209 -0.25099,0.0622 -0.25099,-0.62199 z m 127.89861,-4.2295 c 0.01,-0.82102 0.12166,-1.09665 0.24785,-0.61251 0.12613,0.48413 0.11787,1.15588 -0.0184,1.49276 -0.13629,0.33688 -0.23949,-0.0592 -0.22939,-0.88025 z m -128.37778,-0.49759 c 0.01,-0.82102 0.12166,-1.09665 0.24785,-0.61251 0.12613,0.48414 0.11787,1.15588 -0.0184,1.49276 -0.13628,0.33688 -0.23948,-0.0592 -0.22938,-0.88025 z m 127.88019,-3.9807 c 0.01,-0.82102 0.12166,-1.09666 0.24785,-0.61252 0.12614,0.48414 0.11788,1.15588 -0.0184,1.49277 -0.13629,0.33688 -0.23949,-0.0592 -0.22939,-0.88025 z m -128.37778,-0.49759 c 0.01,-0.82102 0.12166,-1.09666 0.24785,-0.61252 0.12614,0.48414 0.11788,1.15589 -0.0184,1.49277 -0.13629,0.33688 -0.23949,-0.0592 -0.22939,-0.88025 z m 127.88019,-3.98071 c 0.01,-0.82102 0.12166,-1.09665 0.24785,-0.61251 0.12614,0.48414 0.11788,1.15588 -0.0184,1.49276 -0.13629,0.33688 -0.23949,-0.0592 -0.22939,-0.88025 z m -128.37778,-0.49759 c 0.01,-0.82102 0.12166,-1.09665 0.24785,-0.61251 0.12614,0.48414 0.11788,1.15588 -0.0184,1.49276 -0.13629,0.33689 -0.23949,-0.0592 -0.22939,-0.88025 z m 127.88019,-3.9807 c 0.01,-0.82102 0.12166,-1.09666 0.24785,-0.61252 0.12614,0.48414 0.11788,1.15588 -0.0184,1.49277 -0.13629,0.33688 -0.23949,-0.0592 -0.22939,-0.88025 z m -128.37778,-0.49759 c 0.01,-0.82102 0.12166,-1.09665 0.24785,-0.61252 0.12614,0.48414 0.11788,1.15589 -0.0184,1.49277 -0.13629,0.33688 -0.23949,-0.0592 -0.22939,-0.88025 z m 127.88019,-3.98071 c 0.01,-0.82102 0.12166,-1.09665 0.24785,-0.61251 0.12614,0.48414 0.11788,1.15588 -0.0184,1.49276 -0.13629,0.33688 -0.23949,-0.0592 -0.22939,-0.88025 z M 509.47838,131.2142 c 0.01,-0.82103 0.12166,-1.09666 0.24785,-0.61252 0.12614,0.48414 0.11788,1.15588 -0.0184,1.49276 -0.13629,0.33689 -0.23949,-0.0592 -0.22939,-0.88024 z m 127.8802,-3.98071 c 0.01,-0.82102 0.12166,-1.09666 0.24784,-0.61252 0.12614,0.48414 0.11788,1.15589 -0.0184,1.49277 -0.13629,0.33688 -0.23949,-0.0592 -0.22938,-0.88025 z M 508.9808,126.7359 c 0.01,-0.82102 0.12166,-1.09665 0.24784,-0.61252 0.12614,0.48414 0.11788,1.15589 -0.0184,1.49277 -0.13629,0.33688 -0.23949,-0.0592 -0.22938,-0.88025 z m 68.5702,0.55083 c 0,-0.10756 0.34752,-0.32891 0.77221,-0.4919 0.44285,-0.16992 0.64258,-0.0865 0.46823,0.19556 -0.29219,0.47282 -1.24044,0.69934 -1.24044,0.29634 z m 4.2295,-2.78998 c 0.49535,-0.54734 1.01259,-0.99517 1.14943,-0.99517 0.13684,0 -0.15649,0.44783 -0.65184,0.99517 -0.49535,0.54735 -1.01259,0.99518 -1.14943,0.99518 -0.13684,0 0.15649,-0.44783 0.65184,-0.99518 z m -20.71341,-0.37319 c -0.6189,-0.7892 -0.60133,-0.8068 0.18789,-0.18787 0.47893,0.37561 0.87078,0.76746 0.87078,0.87078 0,0.40954 -0.40862,0.14595 -1.05867,-0.68291 z m -52.58388,-1.86595 c 0.01,-0.82102 0.12166,-1.09666 0.24785,-0.61252 0.12613,0.48414 0.11787,1.15588 -0.0184,1.49276 -0.13629,0.33689 -0.23949,-0.0592 -0.22939,-0.88024 z m 128.35937,0.24879 c 0,-0.68418 0.11295,-0.96408 0.25098,-0.62199 0.13803,0.3421 0.13803,0.90188 0,1.24398 -0.13803,0.34209 -0.25098,0.0622 -0.25098,-0.62199 z m -128.05206,-2.33026 c 0.35921,-0.14374 0.78838,-0.12606 0.95373,0.0393 0.16534,0.16534 -0.12858,0.28295 -0.65309,0.26134 -0.57969,-0.0239 -0.69757,-0.14178 -0.30064,-0.30062 z m -119.82548,-0.34555 c 0,-0.10333 0.39185,-0.49518 0.87078,-0.87078 0.7892,-0.61894 0.8068,-0.60134 0.18786,0.18787 -0.65003,0.82886 -1.05864,1.09244 -1.05864,0.68291 z m 124.03333,-0.15696 c 0.48416,-0.12615 1.1559,-0.11786 1.49277,0.0185 0.33691,0.1363 -0.0592,0.23952 -0.88024,0.22938 -0.82102,-0.0101 -1.09663,-0.12166 -0.61253,-0.24782 z m 4.4783,-0.49758 c 0.48415,-0.12616 1.1559,-0.11787 1.49276,0.0185 0.33692,0.1363 -0.0592,0.23952 -0.88023,0.22938 -0.82102,-0.0101 -1.09664,-0.12166 -0.61253,-0.24782 z m 4.47829,-0.49759 c 0.48416,-0.12616 1.1559,-0.11787 1.49277,0.0185 0.33691,0.1363 -0.0592,0.23952 -0.88024,0.22938 -0.82102,-0.0102 -1.09663,-0.12166 -0.61253,-0.24782 z m 114.39003,-0.65035 c 0,-0.68419 0.11295,-0.96408 0.25098,-0.62199 0.13803,0.34209 0.13803,0.90188 0,1.24397 -0.13803,0.34209 -0.25098,0.0622 -0.25098,-0.62198 z m -109.91173,0.15276 c 0.48415,-0.12616 1.15589,-0.11786 1.49276,0.0185 0.33692,0.1363 -0.0592,0.23952 -0.88023,0.22938 -0.82102,-0.0101 -1.09664,-0.12166 -0.61253,-0.24782 z m 4.47829,-0.49759 c 0.48416,-0.12616 1.1559,-0.11786 1.49277,0.0185 0.33691,0.13631 -0.0592,0.23953 -0.88024,0.22939 -0.82102,-0.0102 -1.09663,-0.12166 -0.61253,-0.24782 z m 4.4783,-0.49759 c 0.48415,-0.12616 1.15589,-0.11786 1.49276,0.0185 0.33692,0.13631 -0.0592,0.23953 -0.88023,0.22939 -0.82102,-0.0101 -1.09664,-0.12166 -0.61253,-0.24782 z m -143.19049,-1.14794 c 0.49534,-0.54734 1.01258,-0.99517 1.14942,-0.99517 0.13684,0 -0.15649,0.44783 -0.65183,0.99517 -0.49535,0.54735 -1.01258,0.99518 -1.14942,0.99518 -0.13684,0 0.15649,-0.44783 0.65183,-0.99518 z m 147.66878,0.65036 c 0.48415,-0.12616 1.1559,-0.11787 1.49277,0.0185 0.33691,0.1363 -0.0592,0.23952 -0.88024,0.22938 -0.82102,-0.0101 -1.09663,-0.12166 -0.61253,-0.24782 z m 46.26735,-1.39674 c 0.005,-1.09469 0.10743,-1.48393 0.22646,-0.86498 0.11902,0.61896 0.11449,1.51462 -0.01,1.99036 -0.12454,0.47573 -0.22192,-0.0307 -0.2164,-1.12538 z m -41.54971,0.91443 c 0.34209,-0.13804 0.90187,-0.13804 1.24397,0 0.34209,0.13803 0.0622,0.25098 -0.62199,0.25098 -0.68418,0 -0.96408,-0.11295 -0.62198,-0.25098 z m 4.47829,-0.49759 c 0.34209,-0.13804 0.90188,-0.13804 1.24397,0 0.34209,0.13804 0.0622,0.25098 -0.62198,0.25098 -0.68419,0 -0.96408,-0.11294 -0.62199,-0.25098 z m 4.4783,-0.49759 c 0.34209,-0.13803 0.90187,-0.13803 1.24397,0 0.34209,0.13804 0.0622,0.25098 -0.62199,0.25098 -0.68418,0 -0.96408,-0.11294 -0.62198,-0.25098 z m 82.30503,-1.66081 c 0,-0.68418 0.11295,-0.96408 0.25098,-0.62198 0.13803,0.34209 0.13803,0.90187 0,1.24397 -0.13803,0.34209 -0.25098,0.0622 -0.25098,-0.62199 z m -240.9113,-0.68546 c 0,-0.10332 0.39185,-0.49517 0.87077,-0.87078 0.78921,-0.61893 0.80681,-0.60133 0.18787,0.18787 -0.65003,0.82886 -1.05864,1.09245 -1.05864,0.68291 z M 586.01,112.30584 c 0,-0.41051 0.2169,-0.74638 0.48197,-0.74638 0.26511,0 0.35308,0.33587 0.19555,0.74638 -0.15754,0.41051 -0.37439,0.74638 -0.48197,0.74638 -0.10753,0 -0.19555,-0.33587 -0.19555,-0.74638 z m 3.61697,-1.09121 c 0.48415,-0.12615 1.1559,-0.11786 1.49277,0.0185 0.33691,0.13631 -0.0592,0.23953 -0.88024,0.22939 -0.82102,-0.0102 -1.09663,-0.12166 -0.61253,-0.24782 z m 4.4783,-0.49758 c 0.48415,-0.12616 1.15589,-0.11787 1.49276,0.0185 0.33692,0.1363 -0.0592,0.23952 -0.88023,0.22938 -0.82102,-0.0102 -1.09664,-0.12166 -0.61253,-0.24782 z m 4.47829,-0.49759 c 0.48415,-0.12616 1.1559,-0.11787 1.49277,0.0185 0.33691,0.1363 -0.0592,0.23952 -0.88024,0.22938 -0.82102,-0.0101 -1.09663,-0.12166 -0.61253,-0.24782 z m 4.71763,-0.48231 c 0.3421,-0.13804 0.90188,-0.13804 1.24398,0 0.34209,0.13804 0.0622,0.25098 -0.62199,0.25098 -0.68418,0 -0.96408,-0.11294 -0.62199,-0.25098 z m 32.04862,-0.66563 c 0,-0.68419 0.11295,-0.96408 0.25099,-0.62199 0.13803,0.34209 0.13803,0.90188 0,1.24397 -0.13804,0.34209 -0.25099,0.0622 -0.25099,-0.62198 z m -27.57032,0.16804 c 0.34209,-0.13803 0.90188,-0.13803 1.24397,0 0.34209,0.13804 0.0622,0.25098 -0.62199,0.25098 -0.68418,0 -0.96407,-0.11294 -0.62198,-0.25098 z m 4.47829,-0.49759 c 0.3421,-0.13803 0.90188,-0.13803 1.24397,0 0.3421,0.13804 0.0622,0.25098 -0.62198,0.25098 -0.68418,0 -0.96408,-0.11294 -0.62199,-0.25098 z m 4.4783,-0.49759 c 0.34209,-0.13803 0.90188,-0.13803 1.24397,0 0.34209,0.13804 0.0622,0.25098 -0.62199,0.25098 -0.68418,0 -0.96407,-0.11294 -0.62198,-0.25098 z m 4.47829,-0.49758 c 0.3421,-0.13804 0.90188,-0.13804 1.24397,0 0.3421,0.13803 0.0622,0.25098 -0.62198,0.25098 -0.68419,0 -0.96408,-0.11295 -0.62199,-0.25098 z m 4.4783,-0.49759 c 0.34209,-0.13804 0.90188,-0.13804 1.24397,0 0.34209,0.13803 0.0622,0.25098 -0.62199,0.25098 -0.68418,0 -0.96407,-0.11295 -0.62198,-0.25098 z m 4.47829,-0.49759 c 0.34209,-0.13804 0.90188,-0.13804 1.24397,0 0.3421,0.13804 0.0622,0.25098 -0.62198,0.25098 -0.68419,0 -0.96408,-0.11294 -0.62199,-0.25098 z m 143.86393,-2.034 c -0.6189,-0.78921 -0.60134,-0.80681 0.18788,-0.18787 0.82884,0.65003 1.09246,1.05865 0.68289,1.05865 -0.10329,0 -0.49515,-0.39185 -0.87077,-0.87078 z m -5.1799,-5.722265 -2.46923,-2.61234 2.61234,2.46924 c 1.43678,1.358075 2.61234,2.533625 2.61234,2.612335 0,0.3713 -0.46097,-0.0418 -2.75545,-2.469235 z m -359.98642,-0.12439 c 0.92839,-0.95786 1.79994,-1.74156 1.93678,-1.74156 0.13683,0 -0.5108,0.7837 -1.43919,1.74156 -0.92839,0.95785 -1.79995,1.741555 -1.93678,1.741555 -0.13684,0 0.5108,-0.783705 1.43919,-1.741555 z m 4.72709,-4.2295 c 0.49534,-0.54735 1.01258,-0.99518 1.14942,-0.99518 0.13683,0 -0.15649,0.44783 -0.65184,0.99518 -0.49534,0.54734 -1.01258,0.99517 -1.14941,0.99517 -0.13684,0 0.15648,-0.44783 0.65183,-0.99517 z m 348.2931,-2.61234 -2.46924,-2.61235 2.61234,2.46924 c 1.43679,1.35808 2.61234,2.53364 2.61234,2.61234 0,0.3713 -0.46097,-0.0418 -2.75544,-2.46923 z m -342.57084,-2.05383 c 0,-0.10333 0.39185,-0.49518 0.87078,-0.87078 0.78921,-0.61894 0.80681,-0.60134 0.18787,0.18787 -0.65003,0.82886 -1.05865,1.09244 -1.05865,0.68291 z m 336.80379,-3.17085 c -0.6189,-0.78921 -0.60134,-0.80681 0.18789,-0.18787 0.82883,0.65003 1.09245,1.05865 0.68289,1.05865 -0.1033,0 -0.49515,-0.39185 -0.87078,-0.87078 z m -3.48312,-2.98553 c -0.6189,-0.78921 -0.60134,-0.80681 0.18789,-0.18787 0.47893,0.3756 0.87078,0.76745 0.87078,0.87078 0,0.40953 -0.40862,0.14594 -1.05867,-0.68291 z m -4.97588,-3.98071 c -0.6189,-0.7892 -0.60134,-0.8068 0.18789,-0.18787 0.82883,0.65004 1.09245,1.05865 0.68289,1.05865 -0.1033,0 -0.49515,-0.39185 -0.87078,-0.87078 z"
       id="path978" /><path
       style="fill:#5f5ca8;stroke-width:0.497588"
       d="m 697.84297,515.76925 c 0.34209,-0.1381 0.90188,-0.1381 1.24397,0 0.34209,0.138 0.0622,0.251 -0.62198,0.251 -0.68419,0 -0.96408,-0.113 -0.62199,-0.251 z m 3.01663,-0.01 c 0.35921,-0.1438 0.78838,-0.1261 0.95373,0.039 0.16535,0.1653 -0.12858,0.2829 -0.65309,0.2613 -0.57969,-0.024 -0.69757,-0.1418 -0.30064,-0.3006 z m 11.04024,-5.3824 c 0.9284,-0.9579 1.79993,-1.7416 1.93676,-1.7416 0.13684,0 -0.51077,0.7837 -1.43917,1.7416 -0.9284,0.9578 -1.79993,1.7415 -1.93676,1.7415 -0.13684,0 0.51077,-0.7837 1.43917,-1.7415 z m 8.49826,-18.94986 c 0.0239,-0.57967 0.14181,-0.69757 0.30064,-0.30063 0.14376,0.35919 0.12609,0.78837 -0.0393,0.95371 -0.16534,0.16535 -0.28297,-0.12855 -0.26138,-0.65308 z m -41.67342,-4.43683 c 0,-1.91572 0.0922,-2.63845 0.19988,-1.60607 0.10773,1.03238 0.10589,2.59979 -0.005,3.48312 -0.10992,0.88334 -0.19804,0.0387 -0.19585,-1.87705 z m 41.67342,-4.51976 c 0.0239,-0.57967 0.14181,-0.69757 0.30064,-0.30063 0.14376,0.35919 0.12609,0.78837 -0.0393,0.95371 -0.16534,0.16535 -0.28297,-0.12854 -0.26138,-0.65308 z m -8.2729,-18.7425 -1.96692,-2.11475 2.11475,1.96695 c 1.96672,1.82923 2.34339,2.26255 1.96692,2.26255 -0.0813,0 -1.0329,-0.95163 -2.11475,-2.11475 z m -14.25113,-5.68898 c 0.35921,-0.14374 0.78838,-0.12606 0.95373,0.0393 0.16535,0.16535 -0.12858,0.28295 -0.65309,0.26135 -0.57969,-0.0239 -0.69757,-0.14179 -0.30064,-0.30063 z m 2.95443,0.0104 c 0.34209,-0.13803 0.90188,-0.13803 1.24397,0 0.34209,0.13804 0.0622,0.25098 -0.62198,0.25098 -0.68419,0 -0.96408,-0.11294 -0.62199,-0.25098 z"
       id="path976"
       sodipodi:nodetypes="ssssssssssssssssssscscccsssssscssssssssssss" /><path
       style="fill:#ee4f22;stroke-width:0.497588"
       d="m 962.91488,767.32325 c -1.12723,-3.5515 2.90473,-23.2362 7.73407,-37.7591 3.99852,-12.0245 11.05109,-28.6486 16.21396,-38.2191 2.64563,-4.9042 8.10701,-17.5493 14.11749,-32.6872 15.1807,-38.2336 22.8715,-66.7115 19.6819,-72.8795 -1.5567,-3.0104 -13.9034,-9.934 -23.03901,-12.9193 -6.66945,-2.1795 -14.40422,-3.5335 -22.00164,-3.8515 -6.19503,-0.2594 -7.06576,-0.1819 -11.19574,0.9958 -2.46306,0.7023 -6.8294,1.7668 -9.70297,2.3655 -4.2199,0.8792 -7.32997,2.0434 -16.17162,6.0538 -115.48468,52.3811 -243.65502,73.8184 -384.38697,64.2912 -82.4223,-5.5798 -170.0609,-22.872 -251.28209,-49.5812 -22.57369,-7.4232 -48.70273,-17.1184 -63.56159,-23.5847 l -5.09497,-2.2173 -3.00761,1.5182 c -8.62081,4.3518 -18.49605,11.6525 -22.69805,16.7805 -1.71474,2.0926 -1.87342,2.5401 -1.80291,5.0838 0.0889,3.2059 1.84457,9.1404 4.71779,15.9467 8.98844,21.2925 34.77055,65.0433 51.554,87.4842 10.43473,13.9521 18.20112,26.358 25.07165,40.0491 6.54206,13.0364 11.83616,27.2669 11.83616,31.8154 0,1.8176 -0.0513,1.878 -1.11957,1.3182 -1.77631,-0.931 -10.79355,-10.2775 -20.59588,-21.348 -4.96482,-5.6071 -11.68226,-12.771 -14.92765,-15.9198 -52.50715,-50.9441 -104.59235,-103.1579 -117.85212,-118.143 -8.44598,-9.545 -12.17087,-15.7524 -13.56346,-22.6031 -0.94368,-4.6423 -0.3362,-8.4142 1.82835,-11.3524 0.77081,-1.0462 9.4016,-10.3699 19.17953,-20.7191 9.77794,-10.3492 17.69953,-18.8892 17.60355,-18.9778 -0.096,-0.089 -3.19735,-1.8864 -6.89194,-3.9954 -9.55247,-5.4528 -23.99675,-15.1856 -31.84565,-21.4583 -8.66626,-6.9259 -20.09649,-18.37104 -25.28938,-25.32241 -2.24887,-3.0104 -5.37175,-8.01726 -6.939727,-11.12634 l -2.85087,-5.65288 -5.97105,-2.99446 C 45.751082,445.19167 17.526023,419.36939 8.5853927,392.62535 c -2.35512,-7.04486 -3.26191,-12.75996 -3.2557,-20.51917 0.0156,-19.4651 9.0524803,-38.82789 26.5936803,-56.98059 4.7796,-4.94623 12.008,-11.49702 12.68626,-11.49702 0.17678,0 0.841599,2.85491 1.477379,6.34425 5.88906,32.32085 22.925071,64.17045 46.114661,86.21347 4.33685,4.12242 11.074537,9.69333 11.358527,9.39154 0.0996,-0.10585 -3.904097,-28.40571 -8.897107,-62.88858 -4.99302,-34.48287 -8.99003,-62.79911 -8.88225,-62.92498 0.30318,-0.35404 12.05824,5.60831 19.807657,10.04676 24.21184,13.86722 43.29528,30.87991 54.03379,48.17059 5.70718,9.18945 10.16926,20.21309 12.47959,30.83102 1.01612,4.66996 1.13596,6.54542 1.12866,17.66438 -0.008,11.57664 -0.10031,12.87124 -1.33633,18.65956 -4.31562,20.21029 -13.05751,39.45435 -25.50698,56.15005 l -4.20917,5.64483 1.56765,2.31658 c 0.8622,1.27412 3.39857,4.13896 5.63638,6.36631 7.02196,6.98916 15.82364,12.9657 28.8543,19.59272 6.70535,3.41015 20.73095,9.61078 22.64027,10.00918 0.93239,0.1945 9.45418,-8.62477 9.45418,-9.78425 0,-0.46475 -6.11078,-9.71963 -13.5795,-20.56639 -7.46873,-10.84678 -13.84933,-20.34558 -14.17912,-21.10847 -1.10196,-2.54911 -1.27528,-6.4683 -0.41665,-9.42187 0.99559,-3.42472 4.39326,-7.38528 7.35085,-8.56868 1.13978,-0.45605 11.9454,-2.49803 24.01248,-4.53774 12.06708,-2.03971 22.38805,-3.80901 22.93549,-3.93177 0.68084,-0.15269 1.81499,-1.8713 3.58938,-5.43911 l 2.59404,-5.21591 -9.75149,-22.28969 c -8.29453,-18.95942 -9.78807,-22.74534 -9.99628,-25.33927 -0.47494,-5.9167 2.69478,-11.35968 7.94757,-13.64739 l 2.63108,-1.14591 18.90836,0.59658 c 10.39959,0.32811 21.25946,0.72107 24.13303,0.87325 l 5.22468,0.27668 3.48312,-4.56984 c 1.91571,-2.51341 3.43933,-4.94096 3.38581,-5.39456 -0.0535,-0.45359 -2.47975,-11.34871 -5.3916,-24.21137 -5.70842,-25.216 -5.72237,-25.33099 -3.65464,-30.13755 1.8712,-4.34973 7.26417,-7.95428 11.84619,-7.91777 0.70294,0.006 11.57814,2.55116 24.16712,5.6568 20.75015,5.11896 22.97043,5.57578 23.75984,4.88858 0.72023,-0.62698 0.87156,-0.63716 0.8753,-0.0589 0.0197,3.04606 1.70072,14.01914 2.49545,16.28912 2.9188,8.33695 13.60228,18.59447 25.61377,24.59255 16.55176,8.26531 37.55205,11.8342 65.45578,11.12384 28.79419,-0.73303 48.33643,-2.75902 98.99715,-10.2633 52.21135,-7.73397 70.44164,-9.79074 121.16275,-13.66976 51.96867,-3.97443 74.65591,-6.71069 101.61082,-12.25507 30.93287,-6.3626 50.6722,-15.20436 65.5993,-29.38363 9.05686,-8.60315 15.15599,-19.88256 15.15599,-28.02871 0,-3.21497 -1.26516,-13.47949 -1.99597,-16.19342 -0.30657,-1.13847 -0.48669,-2.13216 -0.40026,-2.20819 0.0864,-0.076 3.80511,-1.86189 8.2638,-3.96859 9.29231,-4.39053 11.74985,-4.92575 16.05364,-3.49626 3.59592,1.19438 6.9848,4.59744 8.19583,8.23017 0.85262,2.55758 0.86984,3.79739 0.3103,22.36244 -0.32582,10.8101 -0.7224,22.00584 -0.88128,24.87941 l -0.28885,5.22468 4.44794,3.78547 4.44799,3.78547 22.84523,-5.63667 c 12.5649,-3.10016 23.42039,-5.64331 24.12333,-5.65142 0.70294,-0.008 2.49426,0.34521 3.9807,0.78518 5.19264,1.53695 9.4201,7.34026 9.4201,12.93165 0,0.88486 -2.3634,12.09594 -5.25195,24.9135 -2.88855,12.81756 -5.29563,23.54935 -5.34907,23.84843 -0.0534,0.29908 1.47027,2.60278 3.38599,5.11933 l 3.48312,4.57554 5.47347,-0.25668 c 3.01041,-0.14118 13.66347,-0.5256 23.67346,-0.85428 20.71002,-0.68002 21.36455,-0.60986 25.11601,2.6923 3.47367,3.05767 4.42854,5.27687 4.44158,10.32269 l 0.0109,4.2295 -9.77407,22.34516 -9.77408,22.34517 2.66055,5.02219 c 1.46331,2.76221 2.95075,5.1803 3.30543,5.37353 0.35469,0.19324 10.66049,2.02804 22.90184,4.07732 13.42001,2.24661 23.11441,4.10529 24.41661,4.68131 6.2314,2.75645 9.3143,10.47922 6.8911,17.26221 -0.5256,1.47127 -6.4215,10.47832 -14.428,22.0415 l -13.5391,19.55356 1.0319,3.46506 1.032,3.46505 4.0824,-3.10719 c 9.4139,-7.16494 20.8443,-17.10134 31.6401,-27.5048 4.1036,-3.9544 5.9901,-6.16395 6.7975,-7.96141 0.6146,-1.36837 2.899,-6.4285 5.0765,-11.24475 l 3.959,-8.75681 -3.2074,-3.6829 c -14.9616,-17.17947 -25.5752,-37.79788 -29.8153,-57.92002 -1.2313,-5.84395 -1.3629,-7.45375 -1.3616,-16.66921 0,-8.69343 0.1668,-10.9725 1.1207,-15.42524 5.7236,-26.71937 23.0472,-49.06511 53.8131,-69.41389 10.1518,-6.71443 26.8499,-15.76934 37.8569,-20.52874 l 2.2794,-0.98559 -1.1275,2.79592 c -3.8597,9.57037 -7.0344,26.33523 -8.6332,45.5885 -1.4534,17.50377 -1.7957,50.05431 -0.6943,66.02914 l 0.2984,4.3282 3.7941,-1.91282 c 24.5779,-12.39099 44.968,-39.09134 56.2586,-73.66919 1.783,-5.46044 5.3418,-19.54477 5.815,-23.01346 0.1773,-1.29995 0.4713,-2.36355 0.6534,-2.36355 0.5623,0 4.8428,7.443 7.4403,12.9373 14.2649,30.1742 13.7698,62.95327 -1.4166,93.79688 -14.1597,28.75812 -41.2007,55.78644 -80.0485,80.01092 -7.5433,4.70383 -7.6608,4.80468 -10.5749,9.07507 -11.9225,17.47209 -29.694,37.73224 -45.9515,52.38644 -2.9722,2.679 -3.3504,3.2042 -2.7368,3.8003 0.3917,0.3804 11.1241,8.3573 23.8499,17.7265 12.7259,9.3692 23.4309,17.3914 23.789,17.827 1.9831,2.4124 2.8291,5.2845 2.7985,9.4998 -0.057,7.8043 -2.7307,14.0365 -12.7564,29.7293 -11.7721,18.4265 -38.7031,57.3064 -73.8455,106.6099 -9.85104,13.8205 -20.00353,28.5989 -22.56124,32.8408 -9.00117,14.9286 -16.38334,25.8746 -17.45017,25.8746 -0.23098,0 -0.57034,-0.4737 -0.7541,-1.0527 z M 643.48803,626.25875 c 8.26569,-2.8954 16.18582,-8.7853 21.69019,-16.1059 3.63916,-4.84 8.96293,-14.9367 8.00866,-15.891 -0.27587,-0.2759 -81.61143,6.2559 -79.27051,5.947 5.7241,-0.7553 0.95105,1.6474 2.38928,4.5407 2.00379,4.0312 3.36526,5.9922 6.09931,8.8836 6.49636,6.8704 12.82665,10.8996 20.70103,13.1982 2.88303,0.8416 4.52483,0.991 9.87903,0.8671 5.72659,-0.1324 6.61789,-0.079 10.50301,-1.4397 z m -94.71211,-53.4069 c 21.18114,-3.6211 34.16579,-14.2227 40.85651,-32.0354 2.75002,-7.3213 3.25325,-12.3433 3.54987,-22.3951 0.34,-11.5211 -0.18185,-18.33426 -2.91794,-26.52411 -7.52309,-22.51856 -20.57342,-34.31052 -42.34037,-36.67135 -9.29973,-1.00865 -17.79741,-0.81781 -28.7867,2.93724 -3.70474,1.2659 -7.1934,2.6748 -9.09579,4.61648 -3.15995,3.22521 -7.52814,7.14037 -9.0954,10.11292 -0.87001,1.65012 -3.95528,9.55878 -5.19086,12.15868 -6.83444,14.38103 -5.35095,24.10744 -4.8643,36.97244 0.39096,10.3353 3.39014,16.7492 8.92218,24.7516 7.18704,10.3964 17.31837,20.0091 32.39958,25.0841 6.71445,2.2595 8.51955,2.3676 16.56322,0.9925 z m 168.56933,-3.6387 c 8.48463,-1.4796 19.82314,-6.1577 29.06266,-12.1361 5.19771,-3.3632 7.77948,-5.7619 10.72914,-9.8639 11.58549,-16.1117 10.10939,-39.9874 -3.17179,-70.17419 -1.95363,-4.44029 -2.36554,-4.83184 -5.72919,-8.02646 -6.73371,-6.39529 -14.31511,-11.6178 -21.90617,-13.7315 -4.95364,-1.37931 -15.56086,-1.30751 -20.77768,0.18227 -5.6626,1.61707 -13.41743,4.22463 -16.29265,6.35412 -6.5815,4.87452 -7.57489,6.95396 -9.72562,9.17341 -3.73833,3.85774 -9.15136,14.50173 -12.12619,23.80875 -2.82919,8.8513 -2.84619,12.1465 -2.80559,22.2343 0.0338,8.4182 -0.17737,9.3207 1.06665,13.871 4.37843,16.0149 17.6546,32.0516 29.69778,36.5948 6.66679,2.5149 14.03415,3.0989 21.97865,1.7135 z m -123.98691,91.3232 c 0.89436,-0.1108 2.23785,-0.1085 2.98553,0.01 0.74772,0.1135 0.0159,0.2041 -1.62607,0.2013 -1.64204,-0.01 -2.25378,-0.096 -1.35946,-0.2064 z m 59.45971,0.01 c 0.75638,-0.1143 1.87595,-0.1113 2.48794,0.01 0.61203,0.1181 -0.007,0.2117 -1.37519,0.2079 -1.36836,0 -1.86909,-0.1003 -1.11275,-0.2147 z m -75.88321,-0.4925 c 0.61895,-0.119 1.51461,-0.1145 1.99035,0.01 0.47569,0.1246 -0.0308,0.222 -1.1254,0.2164 -1.09469,-0.01 -1.48395,-0.1074 -0.86495,-0.2264 z m 91.30163,0.01 c 0.47893,-0.1251 1.26263,-0.1251 1.74156,0 0.47893,0.1252 0.0871,0.2276 -0.87078,0.2276 -0.95786,0 -1.34971,-0.1024 -0.87078,-0.2276 z m -103.48891,-0.4994 c 0.48415,-0.1261 1.15589,-0.1179 1.49276,0.018 0.33692,0.1363 -0.0592,0.2395 -0.88023,0.2294 -0.82102,-0.01 -1.09664,-0.1217 -0.61253,-0.2478 z m 114.94289,0 c 0.48416,-0.1261 1.1559,-0.1179 1.49277,0.018 0.33691,0.1363 -0.0592,0.2395 -0.88024,0.2294 -0.82102,-0.01 -1.09663,-0.1217 -0.61253,-0.2478 z m -124.65532,-0.4823 c 0.34209,-0.138 0.90188,-0.138 1.24397,0 0.34209,0.138 0.0622,0.251 -0.62198,0.251 -0.68419,0 -0.96408,-0.113 -0.62199,-0.251 z m 133.88235,-0.01 c 0.35921,-0.1437 0.78838,-0.1261 0.95373,0.039 0.16535,0.1654 -0.12858,0.283 -0.65309,0.2614 -0.57969,-0.024 -0.69757,-0.1418 -0.30064,-0.3007 z m -142.31025,-0.4976 c 0.35921,-0.1437 0.78838,-0.1261 0.95373,0.039 0.16534,0.1654 -0.12858,0.283 -0.65309,0.2614 -0.57969,-0.024 -0.69757,-0.1418 -0.30064,-0.3006 z m 150.27166,0 c 0.35921,-0.1437 0.78838,-0.1261 0.95373,0.039 0.16535,0.1654 -0.12858,0.283 -0.65308,0.2614 -0.57969,-0.024 -0.69757,-0.1418 -0.30065,-0.3006 z m -158.26417,-0.4872 c 0.34209,-0.1381 0.90187,-0.1381 1.24397,0 0.34209,0.138 0.0622,0.251 -0.62199,0.251 -0.68418,0 -0.96408,-0.113 -0.62198,-0.251 z m -6.93514,-0.508 c 0.35921,-0.1437 0.78838,-0.126 0.95373,0.039 0.16535,0.1654 -0.12858,0.283 -0.65309,0.2614 -0.57969,-0.024 -0.69757,-0.1418 -0.30064,-0.3006 z m 184.10767,-0.4975 c 0.35921,-0.1438 0.78838,-0.1261 0.95373,0.039 0.16535,0.1653 -0.12858,0.2829 -0.65309,0.2613 -0.57969,-0.024 -0.69757,-0.1418 -0.30064,-0.3006 z m 5.47347,-0.4976 c 0.35921,-0.1438 0.78838,-0.1261 0.95373,0.039 0.16535,0.1653 -0.12858,0.2829 -0.65309,0.2613 -0.57969,-0.024 -0.69757,-0.1418 -0.30064,-0.3006 z m -212.96779,-0.9952 c 0.35921,-0.1438 0.78838,-0.1261 0.95373,0.039 0.16535,0.1653 -0.12858,0.283 -0.65309,0.2614 -0.57969,-0.024 -0.69757,-0.1418 -0.30064,-0.3007 z m -160.61666,-422.987 c 0.006,-0.20757 0.44894,-0.93719 0.98411,-1.62137 0.89561,-1.14497 0.97393,-1.16439 0.98411,-0.24409 0.006,0.54993 -0.43676,1.27955 -0.98411,1.62138 -0.54734,0.34182 -0.99019,0.45166 -0.98411,0.24408 z"
       id="path974"
       sodipodi:nodetypes="ssssssssssssscssssssssssssssssssscssssssssssssscsscsssssssssssscssscsscsssscsssssssssssssssssscccssssssscsssscccsssssscccsssscssccsscssscsssscsscsssscsssssssssssssssssssssssssssssssssssssssssssscsssccsssscssssssssssssssssssssssssssssssssssssssssssssssssssssssssssssssss" /><path
       style="fill:#a32e21;stroke-width:0.497588"
       d="m 926.09106,708.87785 c 1.69389,-11.2955 9.70173,-32.7605 19.8492,-53.2056 11.60132,-23.3743 22.74152,-49.5971 28.95436,-68.1554 1.73818,-5.1921 3.07818,-9.5222 2.97782,-9.6225 -0.10036,-0.1004 -2.37842,1.3921 -5.06236,3.3165 -9.80921,7.0335 -25.35452,15.8219 -41.12254,23.2483 -61.9285,29.1667 -144.41004,48.1447 -235.46173,54.1766 -41.90301,2.776 -94.03429,2.9612 -139.57352,0.4958 -102.11141,-5.5279 -191.96996,-23.1702 -258.64031,-50.7797 -8.3908,-3.4748 -25.65514,-11.7413 -29.63254,-14.1885 -1.3349,-0.8215 -2.52323,-1.3973 -2.64074,-1.2798 -0.61897,0.619 12.84222,28.9891 20.93922,44.1304 2.41441,4.5149 6.34669,11.4557 8.73841,15.424 11.36757,18.8608 20.09205,37.9028 23.66308,51.6469 1.43262,5.5139 1.49891,6.2798 0.49483,5.7179 -1.04999,-0.5877 -5.50336,-6.2796 -11.59579,-14.821 -2.92812,-4.1051 -11.04919,-14.4052 -18.04683,-22.8891 -37.34757,-45.2798 -59.39943,-73.0577 -66.04213,-83.1905 -1.64833,-2.5144 -3.62866,-6.1817 -4.40072,-8.1495 l -1.40376,-3.578 1.47199,-1.2 c 1.82195,-1.4853 8.54112,-5.5747 12.04974,-7.3335 l 2.61635,-1.3116 5.09627,2.2178 c 14.86016,6.4669 40.98838,16.1619 63.5629,23.5853 121.86088,40.0733 252.47615,57.7199 370.70328,50.0835 95.01235,-6.1369 183.17833,-27.6967 264.96578,-64.7935 8.84165,-4.0104 11.95172,-5.1746 16.17162,-6.0538 2.87357,-0.5987 7.23991,-1.6632 9.70297,-2.3655 4.12998,-1.1777 5.00071,-1.2552 11.19574,-0.9958 11.21803,0.4696 21.30583,2.9011 30.89755,7.4474 6.775,3.2113 6.6908,3.1223 5.5263,5.8378 -3.1297,7.2983 -23.84213,38.4455 -59.09353,88.8644 -6.33733,9.0641 -13.04089,19.0283 -14.89685,22.1427 -4.80386,8.0614 -11.29958,17.8535 -11.84324,17.8535 -0.26676,0 -0.31781,-0.9619 -0.12082,-2.2755 z"
       id="path972"
       sodipodi:nodetypes="sssssssssscsssssssscsscscsssssssssss" /></g></g><g
   inkscape:groupmode="layer"
   id="layer4"
   inkscape:label="Wrench"
   style="display:inline"><path
     id="rect1008"
     style="clip-rule:evenodd;display:inline;fill:#77767b;fill-opacity:1;fill-rule:evenodd;stroke:#77767b;stroke-width:40.1559;stroke-linecap:square;stroke-linejoin:round;stroke-miterlimit:1.41421;stroke-dasharray:none;stroke-opacity:1"
     d="m 1727.5518,367.48856 c -86.9082,7.79233 -105.2134,-54.29157 -105.6875,-101.43123 v 0 l 80.6915,82.18961 c 25.9866,-0.74333 71.315,0.43239 71.315,0.43239 l 2.6537,-68.79386 -76.7781,-81.73585 v 0 c 46.66,4.21026 104.628,35.71482 89.1971,115.49837 l 70.1642,73.05096 68.8629,68.20561 68.8628,68.20583 68.8627,68.20565 68.8631,68.20583 68.8625,68.20582 68.8632,68.20567 68.8625,68.20583 -11.6641,0.1383 -11.6637,0.13831 -11.6648,0.13831 -11.664,0.13831 -1.2391,12.88874 -1.2393,12.88876 -1.2387,12.88869 -1.2396,12.88872 -68.8627,-68.20561 -68.8627,-68.20585 -68.8628,-68.20584 -68.8629,-68.20563 -68.8629,-68.20583 -68.8626,-68.20565 -68.8629,-68.20581 z"
     sodipodi:nodetypes="ccccccccccccccccccccccccccccccccc" /><circle
     style="fill:none;fill-opacity:1;stroke:#77767b;stroke-width:48.5819;stroke-linecap:square;stroke-miterlimit:1.41421;stroke-dasharray:none;stroke-opacity:1"
     id="path1020"
     cx="2358.0115"
     cy="935.23688"
     r="75.654053" /></g><g
   inkscape:groupmode="layer"
   id="layer2"
   inkscape:label="eyes"
   style="display:inline"><path
     style="clip-rule:evenodd;fill:#dab326;fill-opacity:0;fill-rule:evenodd;stroke:#dab326;stroke-width:18.6;stroke-linecap:butt;stroke-linejoin:miter;stroke-miterlimit:1.41421;stroke-dasharray:none;stroke-opacity:0"
     d="m 2910.4148,-1473.3605 c -41.829,102.8166 -175.5086,131.4043 -299.5495,154.569 -202.8408,-0.5365 -597.8763,61.3894 -812.2899,82.6948 -140.0048,18.4764 -246.5176,-78.0951 -246.5176,-78.0951 0,0 -21.0523,-69.8827 -7.6019,-103.2163 13.4504,-33.3337 -1.6309,-104.0263 -1.6309,-104.0263 l 26.8357,-17.5989 c 0,0 -29.1517,-252.8779 259.4444,-441.2726 288.5961,-188.3946 620.141,-93.381 620.141,-93.381 0,0 300.6515,61.0175 394.1288,393.4048 93.4773,332.3873 67.0399,206.9216 67.0399,206.9216 z"
     id="path965"
     sodipodi:nodetypes="cccc" /><path
     style="clip-rule:evenodd;fill:#050607;fill-rule:evenodd;stroke-width:0.899826;stroke-linejoin:round;stroke-miterlimit:1.41421"
     d="m 1142.8898,1123.3714 c -3.4642,-0.7732 -8.9451,-2.5146 -12.1796,-3.8697 -12.3929,-5.1928 -28.4891,-17.6591 -35.5167,-27.5073 -4.543,-6.3663 -10.8837,-19.1437 -9.9592,-20.0686 0.5963,-0.5961 135.7373,-11.7957 143.2915,-11.8748 l 3.7516,-0.039 -0.9059,3.3742 c -1.51,5.625 -8.5751,19.8621 -12.7716,25.7365 -5.7001,7.9794 -17.9233,19.3347 -26.4824,24.602 -15.1058,9.2963 -34.1114,13.0209 -49.2277,9.647 z m -175.04728,-96.5402 c -42.70108,-13.3447 -59.04285,-43.11648 -68.03064,-77.0483 -3.26711,-12.33489 -5.39008,-32.93412 -2.36238,-47.29479 2.42929,-11.52187 7.8975,-33.5818 13.01931,-43.65185 l 10.01008,-19.68051 -4.63923,27.52494 c -1.69728,10.06991 -0.0495,13.40683 1.5393,19.74696 2.80728,11.20752 7.48055,20.03258 14.14328,26.70888 7.81304,7.82889 13.82731,10.54978 23.32289,10.55082 6.33323,0 7.94934,-0.35964 13.1905,-2.93975 11.07235,-5.45106 20.23533,-18.05481 24.2679,-33.38057 2.38689,-9.07187 2.55312,-24.9798 0.35393,-33.86549 -3.45762,-13.97049 -9.41947,-25.40594 -18.77414,-31.40858 -5.51463,-3.53883 -16.39398,-5.10595 -21.61865,-3.98732 l -13.57917,2.90749 12.9915,-6.20137 c 15.35198,-7.32805 42.55474,-7.33677 58.329,-4.59025 34.0777,5.9334 56.3738,25.7174 69.8203,61.9543 5.0191,13.52547 7.0364,26.73944 7.1091,46.56308 0.1178,32.44383 -6.7635,54.45367 -23.1745,74.11524 -12.2941,14.72877 -26.4347,32.01897 -50.0912,35.31367 -14.52916,2.0238 -37.28228,1.3336 -45.82718,-1.3366 z m 315.75268,-8.2152 c -12.5904,-1.9996 -24.5314,-7.8229 -33.7977,-16.482 -10.1064,-9.44422 -21.2342,-23.76557 -26.3441,-33.90471 -8.1584,-16.18796 -11.1685,-29.04763 -11.1621,-47.69079 0.016,-23.7669 6.1765,-45.49728 20.3146,-71.56274 4.1299,-7.61385 5.7634,-9.63893 12.2435,-15.17761 7.6656,-6.55208 11.1062,-8.75777 7.7054,-4.94025 -3.6658,4.11525 -6.7014,9.8909 -9.5336,18.13973 -2.6349,7.6743 -2.8547,9.22429 -2.8988,20.45131 -0.041,10.30109 0.2722,13.17335 2.0578,18.89617 4.6621,14.94286 13.0641,26.17076 23.3729,31.2331 4.3043,2.11379 6.2523,2.5103 12.3295,2.5103 6.3355,0 7.949,-0.35995 13.202,-2.94587 10.0022,-4.92421 18.5471,-16.2585 22.8791,-30.34756 2.3723,-7.71497 2.3723,-30.07754 0,-37.7927 -5.9591,-19.38083 -18.8988,-32.14795 -33.9672,-33.51446 l -5.7057,-0.51728 3.6886,-1.56657 c 13.6834,-5.81132 33.6385,-7.33981 47.5751,-3.64376 14.751,3.91196 26.7332,7.9999 38.5157,20.10843 3.9562,4.06555 10.4075,13.10656 13.5972,20.25093 8.5086,19.05815 15.4912,42.76473 17.6516,59.92759 1.5702,12.47482 0.7152,34.14092 -1.7104,43.33499 -2.9358,11.12826 -8.9627,22.48923 -15.9125,29.99555 -12.7943,13.81933 -36.0324,31.2644 -59.1348,36.1242 -8.2673,1.7391 -28.4114,0.1554 -34.9661,-0.886 z"
     id="path970"
     sodipodi:nodetypes="ssssscssssscssscssssssssscsssssscssscsssssssssssscsssssssss" /><path
     style="clip-rule:evenodd;display:inline;fill:#ee4f22;fill-opacity:1;fill-rule:evenodd;stroke:#ee4f22;stroke-width:2.15891px;stroke-linecap:butt;stroke-linejoin:miter;stroke-miterlimit:1.41421;stroke-opacity:1"
     d="m 2013.4411,668.82014 -0.9491,-102.93701 c 1.6773,-42.66272 7.0307,-81.15755 19.3162,-111.79243 0,0 -45.9916,20.02301 -88.8592,51.34018 -47.7472,34.88204 -78.1004,79.8811 -83.5314,126.96421 -5.4314,47.08335 27.7324,58.42789 62.2537,58.00163 34.5217,-0.4264 91.7698,-21.57658 91.7698,-21.57658 z"
     id="path1011"
     sodipodi:nodetypes="cccsssc" /></g>
</svg>
